<svg width="141" height="33" viewBox="0 0 141 33" fill="none" xmlns="http://www.w3.org/2000/svg">
<g clip-path="url(#clip0_23_974)">
<path fill-rule="evenodd" clip-rule="evenodd" d="M12.017 23.3375C10.9547 23.3375 9.93581 22.9161 9.1846 22.1659C8.43339 21.4158 8.01136 20.3984 8.01136 19.3375V0.9375H0V19.3375C0 25.9647 5.38043 31.3375 12.017 31.3375H20.8295V23.3375H12.017ZM36.0511 8.9375C35.1043 8.9375 34.1667 9.12373 33.2919 9.48557C32.4171 9.8474 31.6223 10.3777 30.9527 11.0463C30.2832 11.7149 29.7521 12.5086 29.3898 13.3822C29.0274 14.2557 28.8409 15.192 28.8409 16.1375C28.8409 17.083 29.0274 18.0193 29.3898 18.8928C29.7521 19.7664 30.2832 20.5601 30.9527 21.2287C31.6223 21.8973 32.4171 22.4276 33.2919 22.7894C34.1667 23.1513 35.1043 23.3375 36.0511 23.3375C37.9634 23.3375 39.7974 22.5789 41.1495 21.2287C42.5017 19.8784 43.2614 18.0471 43.2614 16.1375C43.2614 14.2279 42.5017 12.3966 41.1495 11.0463C39.7974 9.69607 37.9634 8.9375 36.0511 8.9375ZM20.8295 16.1375C20.8295 7.7431 27.6448 0.9375 36.0511 0.9375C44.4575 0.9375 51.2727 7.7431 51.2727 16.1375C51.2727 24.5319 44.4575 31.3375 36.0511 31.3375C27.6448 31.3375 20.8295 24.5319 20.8295 16.1375ZM122.574 8.9375C120.662 8.9375 118.828 9.69607 117.475 11.0463C116.123 12.3966 115.364 14.2279 115.364 16.1375C115.364 18.0471 116.123 19.8784 117.475 21.2287C118.828 22.5789 120.662 23.3375 122.574 23.3375C124.486 23.3375 126.32 22.5789 127.672 21.2287C129.024 19.8784 129.784 18.0471 129.784 16.1375C129.784 14.2279 129.024 12.3966 127.672 11.0463C126.32 9.69607 124.486 8.9375 122.574 8.9375ZM107.352 16.1375C107.352 7.7431 114.168 0.9375 122.574 0.9375C130.98 0.9375 137.795 7.7431 137.795 16.1375C137.795 24.5319 130.98 31.3375 122.574 31.3375C114.168 31.3375 107.352 24.5319 107.352 16.1375ZM68.0966 0.9375C59.6903 0.9375 52.875 7.7431 52.875 16.1375C52.875 24.5319 59.6903 31.3375 68.0966 31.3375H90.5284C92.1059 31.3375 93.6272 31.0975 95.058 30.6527L99.3409 32.9375L103.962 24.2943C105.136 22.094 105.75 19.6393 105.75 17.1463V16.1375C105.75 7.7431 98.9347 0.9375 90.5284 0.9375H68.0966ZM97.7386 16.1375C97.7386 14.2279 96.979 12.3966 95.6268 11.0463C94.2746 9.69607 92.4407 8.9375 90.5284 8.9375H68.0966C67.1497 8.9375 66.2121 9.12373 65.3374 9.48557C64.4626 9.8474 63.6677 10.3777 62.9982 11.0463C62.3287 11.7149 61.7976 12.5086 61.4352 13.3822C61.0729 14.2557 60.8864 15.192 60.8864 16.1375C60.8864 17.083 61.0729 18.0193 61.4352 18.8928C61.7976 19.7664 62.3287 20.5601 62.9982 21.2287C63.6677 21.8973 64.4626 22.4276 65.3374 22.7894C66.2121 23.1513 67.1497 23.3375 68.0966 23.3375H90.5284C92.431 23.3376 94.2565 22.5867 95.6071 21.2485C96.9577 19.9103 97.7238 18.0933 97.7386 16.1935V16.1375Z" fill="#283841"/>
<path d="M141 2.9375C141 3.46793 140.789 3.97664 140.413 4.35171C140.038 4.72679 139.528 4.9375 138.997 4.9375C138.466 4.9375 137.957 4.72679 137.581 4.35171C137.205 3.97664 136.994 3.46793 136.994 2.9375C136.994 2.40707 137.205 1.89836 137.581 1.52329C137.957 1.14821 138.466 0.9375 138.997 0.9375C139.528 0.9375 140.038 1.14821 140.413 1.52329C140.789 1.89836 141 2.40707 141 2.9375Z" fill="#283841"/>
</g>
<defs>
<clipPath id="clip0_23_974">
<rect width="141" height="32" fill="white" transform="translate(0 0.9375)"/>
</clipPath>
</defs>
</svg>
