<svg width="136" height="33" viewBox="0 0 136 33" fill="none" xmlns="http://www.w3.org/2000/svg">
<g clip-path="url(#clip0_23_950)">
<path fill-rule="evenodd" clip-rule="evenodd" d="M8.05925 2.9375V32.9375H0V2.9375H8.05925Z" fill="#283841"/>
<path fill-rule="evenodd" clip-rule="evenodd" d="M12.0889 2.9375H29.2148C34.7786 2.9375 39.2889 7.41465 39.2889 12.9375C39.2889 18.4604 34.7786 22.9375 29.2148 22.9375H20.1481V32.9375H12.0889V2.9375ZM20.1481 14.9375H29.2148C30.3276 14.9375 31.2296 14.0421 31.2296 12.9375C31.2296 11.8329 30.3276 10.9375 29.2148 10.9375H20.1481V14.9375Z" fill="#283841"/>
<path fill-rule="evenodd" clip-rule="evenodd" d="M69.5112 2.9375V18.4375C69.5112 22.0273 72.4428 24.9375 76.0593 24.9375C79.6757 24.9375 82.6075 22.0273 82.6075 18.4375V2.9375H90.667V18.4375C90.667 26.4457 84.1269 32.9375 76.0593 32.9375C67.9918 32.9375 61.4519 26.4457 61.4519 18.4375V2.9375H69.5112Z" fill="#283841"/>
<path fill-rule="evenodd" clip-rule="evenodd" d="M42.3112 16.9375C42.3112 9.2055 48.6256 2.9375 56.4149 2.9375H58.4297V10.9375H56.4149C53.0766 10.9375 50.3704 13.6238 50.3704 16.9375V17.9375C50.3704 26.2217 43.605 32.9375 35.2593 32.9375H34.252V24.9375H35.2593C39.154 24.9375 42.3112 21.8035 42.3112 17.9375V16.9375Z" fill="#283841"/>
<path d="M136 3.9375C136 5.59436 134.647 6.9375 132.977 6.9375C131.308 6.9375 129.956 5.59436 129.956 3.9375C129.956 2.28064 131.308 0.9375 132.977 0.9375C134.647 0.9375 136 2.28064 136 3.9375Z" fill="#283841"/>
<path d="M99.3202 32.9375L103.166 16.952L106.025 26.5689C107.73 32.3048 115.915 32.3048 117.62 26.5689L120.478 16.952L124.324 32.9375H132.61L126.563 7.80109C125.125 1.82345 116.639 1.60213 114.886 7.49663L111.823 17.8041L108.758 7.49664C107.006 1.60216 98.5195 1.82342 97.0814 7.80109L91.0347 32.9375H99.3202Z" fill="#283841"/>
</g>
<defs>
<clipPath id="clip0_23_950">
<rect width="136" height="32" fill="white" transform="translate(0 0.9375)"/>
</clipPath>
</defs>
</svg>
