<svg width="139" height="32" viewBox="0 0 139 32" fill="none" xmlns="http://www.w3.org/2000/svg">
<g clip-path="url(#clip0_23_957)">
<path d="M40.1047 17.0591C40.1323 16.5295 40.1323 15.9989 40.1047 15.4693H9.78911C9.78272 15.6013 9.77713 15.734 9.77394 15.8668H3.42307L3.41988 16.0655H0V16.4629H3.41908L3.42387 16.6617H9.77394C9.77713 16.7952 9.78193 16.9271 9.78991 17.0591H18.4934C18.4604 16.7954 18.4438 16.5299 18.4439 16.2642H31.2255C31.2255 16.5337 31.2095 16.7992 31.1759 17.0591H40.1047ZM40.0416 14.6745H31.025C30.9548 14.404 30.8668 14.1385 30.7613 13.8796H18.9104C18.8057 14.1371 18.7171 14.4018 18.6468 14.6745H9.85142C9.8658 14.5417 9.88178 14.409 9.89936 14.277H3.54849L3.57565 14.0831H0V13.6857H3.63876L3.67551 13.4822H10.0264C10.0503 13.3494 10.0775 13.2167 10.1063 13.0847H39.7883C39.9002 13.6054 39.9857 14.1356 40.0416 14.6745ZM39.5942 12.2899H29.8243C29.5939 12.0037 29.3392 11.7378 29.063 11.495H20.6079C20.3323 11.7382 20.0767 12.0037 19.8466 12.2899H10.3004C10.3363 12.1571 10.3747 12.0244 10.4146 11.8924H4.06375L4.13405 11.6691H0V11.2708H4.26746L4.32977 11.0968H10.6806C10.7286 10.9632 10.7797 10.8313 10.8324 10.6993H39.0614C39.2675 11.216 39.4456 11.7478 39.5942 12.2899ZM38.7179 9.90524H11.1759C11.2382 9.7717 11.3021 9.63976 11.3684 9.50781H5.01838L5.13102 9.28842H0V8.89099H5.34751L5.44896 8.71294H11.7998C11.8773 8.5794 11.9572 8.44665 12.0387 8.3155H37.8551C38.1731 8.82581 38.4623 9.35678 38.7179 9.90524ZM9.85142 17.854H40.0424C39.9857 18.3929 39.9002 18.9239 39.7883 19.4437H30.3715C30.5193 19.1893 30.6503 18.9239 30.7621 18.6488H18.9088C19.0206 18.9239 19.1508 19.1893 19.2986 19.4437H10.1055C10.077 19.3116 10.0504 19.1791 10.0256 19.0463H3.67551C3.6625 18.9764 3.64998 18.9065 3.63797 18.8364H0V18.439H3.57486C3.56568 18.3765 3.5569 18.314 3.54849 18.2514H9.89936C9.88163 18.1191 9.86565 17.9866 9.85142 17.854ZM10.2996 20.2386H39.5934C39.4456 20.7815 39.2675 21.3117 39.0614 21.8283H27.9318C28.3366 21.6048 28.7159 21.3382 29.063 21.0334H20.6079C20.9551 21.3382 21.3343 21.6048 21.7391 21.8283H10.8324C10.78 21.6965 10.7294 21.5641 10.6806 21.4309H4.32977L4.26107 21.2393H0V20.8419H4.12846C4.10667 20.7734 4.08537 20.7048 4.06455 20.636H10.4146C10.3747 20.5041 10.3363 20.3721 10.2996 20.2386ZM11.1759 22.6232H38.7179C38.4625 23.1698 38.1744 23.7007 37.8551 24.2129H12.0387C11.9567 24.0817 11.8769 23.9492 11.799 23.8155H5.44896C5.40902 23.7471 5.36987 23.6788 5.33153 23.6096H0V23.2122H5.11664L5.01838 23.0214H11.3692C11.3029 22.8899 11.2384 22.7574 11.1759 22.624V22.6232ZM13.5166 26.2001C13.634 26.3352 13.7546 26.4672 13.8776 26.5976H36.0162C36.4877 26.0976 36.9246 25.5665 37.3239 25.0078H12.5699C12.6658 25.1421 12.7632 25.2749 12.8639 25.4052H6.51303L6.6712 25.6079H0V26.0054H6.99793C7.05305 26.0713 7.10897 26.1357 7.16569 26.2001H13.5166ZM16.1663 28.5847C16.3605 28.7222 16.5578 28.855 16.7575 28.9822H33.1363C33.8716 28.5123 34.5649 27.9805 35.2085 27.3924H14.6861C14.8339 27.5276 14.9848 27.6603 15.1382 27.7899H8.78736C8.87363 27.863 8.96071 27.9345 9.04858 28.0045H0V28.4019H9.56384C9.64692 28.4639 9.7316 28.5251 9.81628 28.5847H16.1671H16.1663ZM21.7719 31.0361C22.796 31.2531 23.8577 31.3668 24.9465 31.3668C27.3862 31.3668 29.6909 30.7945 31.7327 29.777H18.1603C18.4447 29.9185 18.733 30.0513 19.0262 30.1745H12.6754C12.7888 30.2222 12.903 30.2691 13.0173 30.3144H0V30.7118H14.1596C15.5632 31.1379 17.0531 31.3668 18.5964 31.3668C19.6853 31.3668 20.7477 31.2531 21.7719 31.0361ZM12.5699 7.52063H37.3239C36.9246 6.96193 36.4877 6.43079 36.0162 5.93088H13.8776C13.7546 6.06124 13.634 6.19319 13.5158 6.32832H7.16569L7.02509 6.49206H0V6.8895H6.69597C6.63445 6.9666 6.57374 7.0445 6.51383 7.12319H12.8639C12.7632 7.25435 12.6658 7.38709 12.5699 7.52063ZM14.6853 5.13601H35.2077C34.5643 4.548 33.8713 4.01613 33.1363 3.54627H16.7575C16.5578 3.67424 16.3605 3.80699 16.1663 3.94371H9.81628C9.7284 4.0065 9.64053 4.06929 9.55425 4.13368H0V4.53112H9.03979C8.95511 4.59947 8.87124 4.66863 8.78815 4.73858H15.1382C14.9848 4.86814 14.8339 5.00088 14.6853 5.13601ZM18.1611 2.7514H31.7335C29.6269 1.70251 27.303 1.15812 24.9473 1.16165C23.8577 1.16165 22.796 1.27612 21.7719 1.49312C20.728 1.2723 19.6637 1.1612 18.5964 1.16165C16.8917 1.16165 15.2533 1.44145 13.7235 1.95653H0V2.35396H19.0262C18.7337 2.47734 18.4452 2.60989 18.1611 2.7514ZM88.8705 0.9375C89.3954 0.9375 89.8076 1.06786 90.1071 1.32858C90.4195 1.57737 90.5753 1.92473 90.5753 2.37304C90.5753 2.82055 90.4195 3.17427 90.1071 3.43499C89.8076 3.68378 89.3954 3.80858 88.8705 3.80858C88.3465 3.80858 87.9279 3.68378 87.6155 3.43499C87.316 3.17427 87.1658 2.82055 87.1658 2.37304C87.1658 1.92553 87.316 1.57817 87.6155 1.32858C87.9279 1.06786 88.3465 0.9375 88.8705 0.9375ZM90.3316 5.5414V13.6499C90.3316 14.1721 90.4195 14.5266 90.5944 14.7126C90.7814 14.8994 91.0937 14.9924 91.5307 14.9924V15.3835C91.1812 15.3665 90.8316 15.3541 90.4818 15.3461C90.0013 15.3211 89.5202 15.3087 89.0391 15.3088C88.5526 15.3088 88.0589 15.3215 87.5596 15.3461C87.1848 15.3544 86.8101 15.3668 86.4356 15.3835V14.9924C86.8726 14.9924 87.1786 14.8994 87.3535 14.7126C87.5404 14.5266 87.6347 14.1721 87.6347 13.6499V7.77817C87.6347 7.21937 87.5468 6.80842 87.3719 6.5485C87.2097 6.27506 86.8974 6.13835 86.4356 6.13835V5.74647C86.8351 5.78383 87.2225 5.80212 87.5972 5.80212C88.1212 5.80212 88.6085 5.78383 89.0583 5.74647C89.52 5.69719 89.945 5.62883 90.3316 5.5414Z" fill="#283841"/>
<path fill-rule="evenodd" clip-rule="evenodd" d="M95.6041 7.25196V5.5414C95.2174 5.62883 94.7924 5.69719 94.3307 5.74647C93.8682 5.78383 93.3809 5.80211 92.8688 5.80211C92.4941 5.80211 92.1075 5.78383 91.7073 5.74647V6.13834C92.157 6.13834 92.4694 6.27506 92.6443 6.5485C92.8193 6.80922 92.9063 7.21937 92.9063 7.77817V17.0988C92.9063 17.5956 92.8193 17.9311 92.6443 18.1051C92.4822 18.2792 92.1946 18.3659 91.7824 18.3659V18.7577L92.7753 18.7021C93.2311 18.6894 93.687 18.6831 94.143 18.683C94.7797 18.683 95.3796 18.6894 95.9412 18.7013C96.5156 18.7267 96.9653 18.745 97.2904 18.7569V18.3659C96.7656 18.3659 96.3534 18.2665 96.0538 18.0678C95.7542 17.8818 95.6041 17.4963 95.6041 16.912V15.0441C95.7686 15.1808 95.9619 15.2937 96.1848 15.3835C96.5843 15.5584 97.0276 15.645 97.5149 15.645C98.1772 15.645 98.7699 15.5266 99.2948 15.2905C99.8283 15.057 100.297 14.699 100.662 14.2468C101.049 13.7747 101.343 13.1968 101.543 12.5132C101.755 11.8296 101.861 11.0348 101.861 10.127C101.861 9.09606 101.711 8.2384 101.412 7.55481C101.112 6.8585 100.712 6.34342 100.213 6.00799C99.7136 5.66002 99.1172 5.47729 98.5079 5.48575C97.7833 5.48575 97.1466 5.67175 96.597 6.04455C96.1649 6.33468 95.8341 6.73688 95.6041 7.25275V7.25196ZM95.6041 7.89263V14.6498C95.7079 14.7722 95.8333 14.874 95.9787 14.9551C96.216 15.0791 96.4844 15.1411 96.7848 15.1411C97.3464 15.1411 97.7897 14.9551 98.1149 14.5823C98.4392 14.1968 98.6701 13.6626 98.8075 12.979C98.9576 12.2835 99.0327 11.4568 99.0327 10.4998C99.0327 9.4315 98.964 8.59211 98.8266 7.98324C98.6892 7.37437 98.5015 6.93958 98.2642 6.67886C98.027 6.41734 97.7402 6.28699 97.4023 6.28699C96.9533 6.28699 96.5411 6.46186 96.1665 6.80922C95.8845 7.07947 95.6967 7.44114 95.6041 7.89263Z" fill="#283841"/>
<path d="M106.162 5.48576C106.687 5.48576 107.143 5.55412 107.53 5.69084C107.929 5.81484 108.217 5.93963 108.392 6.06363C108.816 6.34979 109.079 6.16299 109.179 5.50404H109.572C109.547 5.8522 109.528 6.28143 109.516 6.79014C109.503 7.28773 109.497 7.95225 109.497 8.78527H109.104C109.04 8.31921 108.92 7.86239 108.747 7.42445C108.588 6.99944 108.324 6.62111 107.98 6.32435C107.655 6.0382 107.23 5.89512 106.706 5.89512C106.344 5.89512 106.038 6.00163 105.788 6.21307C105.538 6.41179 105.413 6.7035 105.413 7.08902C105.413 7.46181 105.526 7.79089 105.75 8.07704C105.975 8.35048 106.262 8.61755 106.612 8.87827C106.974 9.12707 107.349 9.39414 107.736 9.6795C108.148 9.9903 108.523 10.3011 108.86 10.6119C109.183 10.893 109.456 11.2272 109.665 11.5999C109.866 11.96 109.966 12.3884 109.966 12.886C109.966 13.4448 109.803 13.9352 109.478 14.3581C109.153 14.7683 108.723 15.0854 108.186 15.3088C107.661 15.5329 107.074 15.645 106.425 15.645C106.084 15.6489 105.745 15.6112 105.413 15.5329C105.153 15.4686 104.902 15.3747 104.664 15.2531C104.502 15.1784 104.345 15.1101 104.196 15.0481C104.068 14.9783 103.937 14.9162 103.802 14.8621C103.677 14.8247 103.564 14.8676 103.465 14.9924C103.378 15.1164 103.309 15.2905 103.259 15.5139H102.865C102.89 15.1164 102.909 14.6316 102.921 14.06C102.934 13.4885 102.941 12.7302 102.941 11.7867H103.334C103.409 12.4576 103.546 13.0537 103.746 13.5752C103.946 14.0855 104.214 14.4893 104.551 14.7873C104.901 15.0735 105.338 15.2166 105.863 15.2166C106.075 15.2166 106.281 15.1729 106.481 15.0854C106.681 14.998 106.843 14.8549 106.968 14.6562C107.106 14.4575 107.174 14.2031 107.174 13.8931C107.174 13.3455 106.993 12.8916 106.63 12.5315C106.281 12.1714 105.832 11.7796 105.282 11.3575C104.883 11.034 104.502 10.7176 104.14 10.4068C103.804 10.1013 103.514 9.74991 103.278 9.36315C103.05 8.96611 102.933 8.51526 102.941 8.05797C102.941 7.49917 103.09 7.02702 103.39 6.6415C103.695 6.25197 104.104 5.95497 104.57 5.78384C105.077 5.58374 105.617 5.48254 106.162 5.48576ZM129.418 5.69084C129.093 5.55412 128.668 5.48576 128.144 5.48576C127.556 5.47982 126.976 5.62086 126.458 5.89591C125.946 6.15663 125.54 6.59779 125.24 7.21938V5.5422C124.853 5.62884 124.428 5.6972 123.966 5.74648C123.517 5.78384 123.029 5.80212 122.505 5.80212C122.131 5.80212 121.743 5.78384 121.344 5.74648V6.13835C121.805 6.13835 122.118 6.27507 122.28 6.5485C122.455 6.80922 122.542 7.21938 122.542 7.77817V13.6499C122.542 14.1721 122.449 14.5266 122.262 14.7126C122.087 14.8994 121.781 14.9924 121.344 14.9924V15.3835C121.718 15.3668 122.093 15.3544 122.468 15.3461C122.954 15.3216 123.442 15.3092 123.929 15.3088C124.366 15.3088 124.791 15.3215 125.202 15.3461C125.627 15.3589 125.939 15.3716 126.139 15.3835V14.9924C125.815 14.9924 125.583 14.8994 125.446 14.7126C125.308 14.5266 125.24 14.1721 125.24 13.6499V8.46812C125.24 8.05797 125.321 7.69153 125.483 7.36802C125.658 7.03258 125.883 6.77186 126.158 6.58586C126.421 6.40289 126.735 6.3052 127.057 6.30607C127.345 6.30607 127.556 6.37443 127.694 6.51114C127.844 6.63514 127.944 6.81558 127.994 7.05166C128.044 7.27502 128.068 7.54209 128.068 7.85289V13.6499C128.068 14.1721 128 14.5266 127.862 14.7126C127.738 14.8994 127.507 14.9924 127.17 14.9924V15.3835C127.394 15.3716 127.725 15.3589 128.163 15.3461C129.049 15.2959 129.937 15.2959 130.823 15.3461C131.285 15.3589 131.628 15.3716 131.853 15.3835V14.9924C131.453 14.9924 131.172 14.8994 131.01 14.7126C130.848 14.5266 130.766 14.1721 130.766 13.6499V8.55079L130.765 8.49276L130.762 8.30438C130.791 7.99279 130.875 7.68871 131.01 7.40617C131.185 7.06994 131.409 6.80286 131.684 6.60414C131.959 6.40543 132.259 6.30607 132.584 6.30607C132.908 6.30607 133.146 6.37443 133.295 6.51114C133.457 6.63514 133.564 6.81558 133.614 7.05166C133.676 7.27502 133.708 7.54209 133.708 7.85289V13.6499C133.708 14.1721 133.639 14.5266 133.501 14.7126C133.377 14.8994 133.146 14.9924 132.808 14.9924V15.3835C133.033 15.3716 133.364 15.3589 133.801 15.3461C134.244 15.3211 134.687 15.3087 135.131 15.3088C135.594 15.3088 136.062 15.3215 136.536 15.3461C137.011 15.3589 137.367 15.3716 137.604 15.3835V14.9924C137.167 14.9924 136.855 14.8994 136.667 14.7126C136.492 14.5266 136.405 14.1721 136.405 13.6499V8.63584C136.405 8.01425 136.361 7.51745 136.274 7.14466C136.186 6.75914 136.043 6.44914 135.843 6.21307C135.643 5.98891 135.381 5.81563 135.056 5.69084C134.732 5.55412 134.307 5.48576 133.783 5.48576C133.146 5.48576 132.546 5.61612 131.984 5.87684C131.446 6.13279 131.01 6.62084 130.675 7.34099C130.664 7.27519 130.65 7.20972 130.635 7.14466C130.548 6.75914 130.404 6.44914 130.205 6.21307C130.005 5.98891 129.742 5.81563 129.418 5.69084ZM119.874 13.3518V5.5414C119.486 5.62884 119.062 5.6972 118.6 5.74648C118.151 5.78384 117.663 5.80212 117.139 5.80212C116.764 5.80212 116.377 5.78384 115.977 5.74648V6.13835C116.44 6.13835 116.752 6.27507 116.914 6.5485C117.089 6.80922 117.176 7.21938 117.176 7.77817V12.6619C117.176 13.072 117.089 13.4448 116.914 13.7802C116.766 14.0874 116.54 14.3509 116.258 14.5449C115.996 14.7315 115.681 14.8296 115.359 14.8247C115.047 14.8247 114.81 14.7619 114.647 14.6379C114.479 14.4913 114.361 14.2959 114.31 14.0791C114.257 13.8089 114.232 13.5341 114.235 13.2588V5.5414C113.848 5.62884 113.423 5.6972 112.961 5.74648C112.512 5.78384 112.024 5.80212 111.5 5.80212C111.126 5.80212 110.738 5.78384 110.339 5.74648V6.13835C110.8 6.13835 111.113 6.27507 111.275 6.5485C111.45 6.80922 111.537 7.21938 111.537 7.77817V12.4941C111.537 13.103 111.581 13.6006 111.669 13.9853C111.756 14.3708 111.906 14.6816 112.118 14.9177C112.305 15.1291 112.561 15.3032 112.886 15.4399C113.211 15.5759 113.636 15.645 114.16 15.645C114.81 15.645 115.396 15.5139 115.921 15.2531C116.458 14.9797 116.877 14.5322 117.176 13.9114V15.5886C117.595 15.4861 118.021 15.4175 118.45 15.3835C118.9 15.3461 119.387 15.3279 119.911 15.3279C120.299 15.3279 120.685 15.3461 121.073 15.3835V14.9924C120.623 14.9924 120.311 14.8621 120.136 14.6006C119.961 14.3271 119.874 13.9114 119.874 13.3526V13.3518Z" fill="#283841"/>
<path fill-rule="evenodd" clip-rule="evenodd" d="M83.6366 5.9889C82.9496 5.65347 82.1499 5.48575 81.2384 5.48575C80.3517 5.48575 79.5584 5.65347 78.8594 5.9889C78.1724 6.32434 77.6292 6.86485 77.2298 7.61044C76.8423 8.35603 76.6482 9.34406 76.6482 10.5745C76.6482 11.805 76.8423 12.7922 77.229 13.5386C77.6284 14.2715 78.1716 14.8056 78.8586 15.1411C79.5584 15.4765 80.3517 15.645 81.2384 15.645C82.1499 15.645 82.9496 15.4765 83.6366 15.1411C84.3228 14.8056 84.8604 14.2715 85.247 13.5386C85.6345 12.793 85.8278 11.805 85.8278 10.5745C85.8278 9.34406 85.6345 8.35683 85.247 7.61044C84.8604 6.86485 84.3228 6.32434 83.6366 5.9889ZM79.9834 6.97693C80.3205 6.23134 80.7391 5.85855 81.2384 5.85855C81.7505 5.85855 82.1691 6.23134 82.4934 6.97693C82.8305 7.7098 82.9991 8.90926 82.9991 10.5745C82.9991 12.2398 82.8305 13.4392 82.4934 14.1721C82.1691 14.905 81.7505 15.2722 81.2384 15.2722C80.7391 15.2722 80.3205 14.905 79.9834 14.1721C79.6463 13.4392 79.4777 12.2398 79.4777 10.5745C79.4777 8.90926 79.6455 7.7098 79.9834 6.97693ZM70.5394 18.8881C69.7645 18.8881 69.0719 18.8197 68.46 18.683C67.8609 18.559 67.3863 18.3603 67.0364 18.0869C66.6993 17.8253 66.5308 17.5026 66.5308 17.1171C66.5308 16.7316 66.7049 16.3842 67.0548 16.0734C67.4047 15.7754 67.9232 15.5393 68.6102 15.3652L68.7779 15.6633C68.5635 15.8235 68.385 16.0266 68.2539 16.2594C68.154 16.4836 68.1037 16.7133 68.1037 16.9494C68.1037 17.4716 68.341 17.8691 68.8163 18.1417C69.3036 18.4279 69.9586 18.5709 70.7831 18.5709C71.3447 18.5709 71.8447 18.4962 72.2817 18.3476C72.7315 18.1981 73.0806 17.974 73.3306 17.6767C73.5934 17.3778 73.7244 17.0114 73.7244 16.5766C73.7244 16.2038 73.587 15.8866 73.3122 15.6259C73.0374 15.3771 72.4878 15.2531 71.6634 15.2531H70.5019C69.9906 15.2531 69.54 15.1975 69.1534 15.0854C68.7779 14.9741 68.4848 14.7993 68.2723 14.5632C68.0606 14.3152 67.9543 14.0044 67.9543 13.6316C67.9543 13.1094 68.1604 12.6499 68.5726 12.2517C68.8954 11.9401 69.3411 11.6436 69.9099 11.363C69.536 11.3168 69.1687 11.2274 68.8155 11.0968C68.2539 10.8853 67.8105 10.5618 67.4862 10.127C67.1611 9.69221 66.9989 9.13342 66.9989 8.44983C66.9989 7.76624 67.1611 7.20665 67.4862 6.77185C67.8105 6.32434 68.2539 6.00083 68.8163 5.80211C69.3779 5.59147 70.0146 5.48575 70.7263 5.48575C71.4389 5.48575 72.0756 5.59147 72.6372 5.8029C73.0079 5.93326 73.3258 6.11847 73.5934 6.35693C73.7524 6.1288 73.9457 5.92531 74.1734 5.74647C74.5984 5.42375 75.0545 5.2616 75.541 5.2616C75.9404 5.2616 76.2408 5.37367 76.4405 5.59783C76.653 5.80847 76.7593 6.08826 76.7593 6.43642C76.7593 6.80921 76.6586 7.08821 76.4589 7.27501C76.2592 7.44988 76.0347 7.53652 75.7847 7.53652C75.5648 7.53362 75.3528 7.45433 75.1855 7.31237C75.0098 7.16293 74.9107 6.93957 74.886 6.64149C74.8644 6.37442 74.9395 6.04375 75.1112 5.6479C74.747 5.80211 74.4658 5.97778 74.2676 6.1757C74.1183 6.31898 73.9878 6.48058 73.8794 6.6566C73.9098 6.69396 73.9393 6.7329 73.9673 6.77185C74.2924 7.20665 74.4546 7.76544 74.4546 8.44903C74.4546 9.13262 74.2924 9.69221 73.9673 10.127C73.6429 10.5618 73.1996 10.8853 72.6372 11.0968C72.0756 11.3074 71.4389 11.4131 70.7263 11.4131C70.6198 11.4132 70.5132 11.4108 70.4068 11.406C70.2382 11.5196 70.0761 11.6404 69.9211 11.7676C69.8248 11.8425 69.7476 11.9389 69.6956 12.0489C69.6436 12.1589 69.6182 12.2796 69.6215 12.4011C69.6215 12.7986 69.8716 12.9973 70.3708 12.9973H72.4127C73.0997 12.9973 73.7116 13.0784 74.2485 13.2397C74.7981 13.4019 75.2287 13.669 75.541 14.0417C75.8661 14.4018 76.0283 14.874 76.0283 15.4582C76.0283 16.0671 75.8286 16.6322 75.4292 17.1545C75.0417 17.6767 74.4426 18.0924 73.6302 18.4032C72.8185 18.7267 71.788 18.8881 70.5394 18.8881ZM70.7263 11.0777C71.0643 11.0777 71.3255 10.8917 71.5132 10.5189C71.7009 10.1334 71.7944 9.44342 71.7944 8.44983C71.7944 7.45544 71.7009 6.77185 71.5132 6.39906C71.3263 6.01355 71.0643 5.82119 70.7271 5.82119C70.402 5.82119 70.14 6.01355 69.9403 6.39906C69.7525 6.77185 69.6591 7.45544 69.6591 8.44983C69.6591 9.44342 69.7525 10.1334 69.9403 10.5189C70.14 10.8917 70.402 11.0777 70.7263 11.0777ZM64.1055 5.9889C63.4185 5.65347 62.6196 5.48575 61.7081 5.48575C60.8214 5.48575 60.0281 5.65347 59.3291 5.9889C58.6421 6.32434 58.0989 6.86485 57.6995 7.61044C57.312 8.35603 57.1179 9.34406 57.1179 10.5745C57.1179 11.805 57.312 12.7922 57.6987 13.5386C58.0981 14.2715 58.6413 14.8056 59.3283 15.1411C60.0281 15.4765 60.8214 15.645 61.7081 15.645C62.6196 15.645 63.4193 15.4765 64.1055 15.1411C64.7925 14.8056 65.3293 14.2715 65.7167 13.5386C66.1042 12.793 66.2975 11.805 66.2975 10.5745C66.2975 9.34406 66.1042 8.35683 65.7167 7.61044C65.3301 6.86485 64.7925 6.32434 64.1055 5.9889ZM60.4523 6.97693C60.7902 6.23134 61.208 5.85855 61.7081 5.85855C62.2194 5.85855 62.638 6.23134 62.9623 6.97693C63.3002 7.7098 63.4688 8.90926 63.4688 10.5745C63.4688 12.2398 63.3002 13.4392 62.9631 14.1721C62.638 14.905 62.2202 15.2722 61.7081 15.2722C61.208 15.2722 60.7894 14.905 60.4523 14.1721C60.1152 13.4392 59.9467 12.2398 59.9467 10.5745C59.9467 8.90926 60.1152 7.7098 60.4523 6.97693Z" fill="#283841"/>
<path d="M52.0722 2.18625V2.55984C51.648 2.57176 51.3229 2.62104 51.0984 2.70848C50.9956 2.74309 50.9028 2.80184 50.8277 2.87974C50.7526 2.95764 50.6975 3.0524 50.667 3.15599C50.5927 3.36663 50.5552 3.70286 50.5552 4.1623V13.6316C50.5552 14.0163 50.5799 14.3025 50.6303 14.4893C50.6926 14.6753 50.8052 14.7993 50.9674 14.8621C51.1423 14.9241 51.3988 14.9551 51.7351 14.9551H52.6538C53.0771 14.9551 53.4774 14.8557 53.852 14.657C54.2275 14.4583 54.5638 14.1785 54.8634 13.8176C55.1793 13.4168 55.4323 12.9706 55.6135 12.4941C55.8132 11.9854 55.9626 11.4195 56.0624 10.7979H56.4938C56.4563 11.2208 56.4379 11.7676 56.4379 12.4385C56.4379 12.7247 56.4435 13.1404 56.4563 13.6872C56.4691 14.2341 56.5058 14.8001 56.5681 15.3835C55.8505 15.3572 55.1325 15.3447 54.4144 15.3461C53.6156 15.3342 52.903 15.3279 52.2783 15.3279H51.08C50.5927 15.3279 50.0679 15.3342 49.5063 15.3461C48.9439 15.3461 48.3759 15.3525 47.8015 15.3652C47.2264 15.3652 46.6831 15.3716 46.1719 15.3835V15.0107C46.5713 14.9861 46.8709 14.936 47.0706 14.8621C47.2703 14.7874 47.4013 14.6379 47.4644 14.4146C47.5387 14.1904 47.5763 13.855 47.5763 13.4075V4.1623C47.5763 3.70207 47.5387 3.36743 47.4644 3.15599C47.4398 3.05259 47.389 2.95718 47.3169 2.87884C47.2447 2.80051 47.1536 2.74186 47.0522 2.70848C46.8525 2.62104 46.5585 2.57176 46.1719 2.55904V2.18625C47.158 2.22261 48.1448 2.24116 49.1316 2.24189C49.6812 2.24189 50.2181 2.23633 50.7421 2.22361C51.2797 2.21089 51.7231 2.19897 52.0722 2.18625Z" fill="#283841"/>
<path fill-rule="evenodd" clip-rule="evenodd" d="M135.702 30.7873C135.675 30.6538 135.693 30.4797 135.756 30.2651L138.395 20.7529C137.972 20.9252 137.535 21.0596 137.088 21.1543C136.631 21.2441 136.106 21.2926 135.513 21.3021L135.419 21.5835C135.859 21.5835 136.133 21.655 136.241 21.7981C136.348 21.9412 136.361 22.1638 136.281 22.4674L135.656 24.8115C135.617 24.6984 135.549 24.5972 135.46 24.5174C135.307 24.3743 135.096 24.3028 134.827 24.3028C134.288 24.3028 133.79 24.4236 133.332 24.6644C132.872 24.9147 132.457 25.241 132.107 25.6294C131.738 26.0229 131.426 26.4647 131.178 26.9425C130.933 27.4075 130.739 27.8969 130.599 28.4027C130.471 28.8383 130.403 29.2891 130.396 29.7429C130.396 30.1713 130.464 30.5242 130.599 30.8008C130.734 31.0687 130.917 31.2698 131.151 31.4033C131.384 31.5289 131.644 31.5909 131.932 31.5909C132.371 31.5909 132.767 31.4622 133.117 31.203C133.466 30.9352 133.794 30.5242 134.1 29.9702C134.228 29.7444 134.356 29.4909 134.484 29.2095L134.396 29.5417C134.314 29.8035 134.26 30.0727 134.234 30.3454C134.217 30.5775 134.234 30.7746 134.288 30.9352C134.396 31.3723 134.728 31.5917 135.285 31.5917C135.491 31.5917 135.702 31.5512 135.917 31.4709C136.133 31.3906 136.334 31.2523 136.523 31.0552C136.721 30.8589 136.878 30.5783 136.994 30.211L137.318 29.2333H137.062L136.846 29.8359C136.685 30.2921 136.532 30.5997 136.389 30.7603C136.254 30.9129 136.115 30.9884 135.971 30.9884C135.818 30.9884 135.729 30.9216 135.702 30.7873ZM134.983 27.3376C134.882 27.6643 134.772 27.9751 134.652 28.2684C134.427 28.8407 134.189 29.3319 133.938 29.7429C133.696 30.1443 133.458 30.4566 133.224 30.6808C132.991 30.8946 132.784 31.0019 132.605 31.0019C132.434 31.0019 132.309 30.9216 132.228 30.7611C132.156 30.591 132.12 30.3366 132.12 29.9972C132.12 29.5147 132.174 29.0235 132.282 28.5235C132.39 28.0148 132.537 27.5275 132.726 27.0633C132.9 26.6277 133.116 26.2102 133.372 25.817C133.615 25.4418 133.871 25.1469 134.14 24.9323C134.418 24.7177 134.692 24.6112 134.961 24.6112C135.141 24.6112 135.285 24.674 135.392 24.7987C135.468 24.8798 135.525 24.9975 135.565 25.1533L134.983 27.3376Z" fill="#283841"/>
<path d="M126.742 31.4033H125.086L126.701 25.6294C126.782 25.3615 126.809 25.1739 126.782 25.0666C126.755 24.9593 126.675 24.9061 126.54 24.9061C126.369 24.9061 126.212 24.9911 126.068 25.1604C125.924 25.3297 125.777 25.6294 125.624 26.0586L125.395 26.6874H125.139L125.489 25.6827C125.615 25.325 125.772 25.0491 125.96 24.852C126.149 24.6469 126.356 24.5039 126.58 24.4236C126.805 24.3433 127.033 24.3028 127.267 24.3028C127.554 24.3028 127.765 24.3608 127.899 24.4776C128.043 24.5937 128.133 24.7455 128.169 24.9331C128.215 25.1353 128.224 25.3438 128.196 25.5491C128.178 25.7637 128.142 25.9736 128.088 26.1787L127.871 27.0188L127.926 26.8758C128.178 26.2414 128.42 25.7367 128.653 25.3615C128.896 24.9776 129.152 24.705 129.421 24.5444C129.685 24.3849 129.988 24.3012 130.297 24.3028C130.619 24.3028 130.866 24.3966 131.037 24.5841C131.217 24.7717 131.306 25.0038 131.306 25.2812C131.306 25.5038 131.252 25.7144 131.145 25.9108C131.04 26.095 130.892 26.2513 130.714 26.3662C130.543 26.4735 130.346 26.5268 130.122 26.5268C129.897 26.5268 129.717 26.4688 129.582 26.3527C129.457 26.2367 129.394 26.0666 129.394 25.844C129.394 25.6469 129.439 25.4688 129.529 25.3075C129.615 25.1504 129.735 25.0135 129.879 24.9061C130.023 24.79 130.18 24.7097 130.35 24.6644C130.331 24.646 130.308 24.6324 130.283 24.6247C130.253 24.6152 130.221 24.6107 130.189 24.6112C129.991 24.6112 129.789 24.6827 129.582 24.8258C129.376 24.9593 129.161 25.1787 128.936 25.4823C128.712 25.786 128.483 26.1874 128.25 26.6874C127.987 27.2786 127.753 27.8824 127.549 28.4965C127.448 28.7938 127.346 29.1133 127.243 29.4559L126.742 31.4033Z" fill="#283841"/>
<path fill-rule="evenodd" clip-rule="evenodd" d="M121.71 29.3335L121.654 29.5417C121.569 29.8443 121.51 30.1536 121.479 30.4662C121.452 30.7523 121.496 30.9932 121.613 31.1895C121.793 31.4574 122.098 31.5917 122.528 31.5917C122.735 31.5917 122.941 31.5512 123.148 31.4709C123.363 31.3906 123.565 31.2523 123.754 31.0552C123.942 30.8501 124.1 30.564 124.225 30.1983L124.562 29.2206H124.306L124.104 29.8231C123.942 30.2873 123.786 30.5957 123.633 30.7476C123.481 30.8986 123.332 30.9749 123.188 30.9749C123.072 30.9749 122.996 30.9391 122.96 30.8676C122.932 30.7766 122.922 30.6809 122.933 30.5862C122.95 30.4726 122.977 30.3607 123.013 30.2516L124.751 24.3028C124.48 24.3671 124.206 24.4119 123.929 24.4371C123.651 24.4641 123.35 24.4816 123.027 24.4903L122.832 25.2073C122.824 25.0253 122.771 24.8481 122.677 24.6914C122.607 24.5693 122.504 24.4686 122.381 24.4001C122.258 24.3316 122.118 24.298 121.976 24.3028C121.582 24.3028 121.187 24.4236 120.792 24.6644C120.372 24.9272 119.995 25.2526 119.674 25.6294C119.312 26.0402 118.996 26.4894 118.731 26.9688C118.467 27.4495 118.255 27.9571 118.099 28.483C117.952 28.9561 117.875 29.448 117.87 29.9432C117.87 30.4439 117.987 30.8453 118.22 31.149C118.453 31.4439 118.812 31.5909 119.297 31.5909C119.638 31.5909 119.966 31.4932 120.28 31.2968C120.603 31.0997 120.908 30.7738 121.196 30.3191C121.374 30.0449 121.545 29.7166 121.71 29.3335ZM120.55 30.6935C120.343 30.8811 120.159 30.9749 119.998 30.9749C119.863 30.9749 119.76 30.9081 119.688 30.7738C119.625 30.6307 119.593 30.3946 119.593 30.064C119.593 29.5902 119.647 29.1038 119.755 28.6038C119.863 28.103 120.006 27.6213 120.186 27.1571C120.375 26.6921 120.581 26.2772 120.805 25.9108C121.03 25.5451 121.254 25.2542 121.479 25.0396C121.712 24.825 121.932 24.7185 122.139 24.7185C122.353 24.7185 122.506 24.8258 122.596 25.0396C122.686 25.2335 122.709 25.4935 122.666 25.8186L122.268 27.2827L122.314 27.0498C122.17 27.6213 121.999 28.1483 121.801 28.6308C121.63 29.0622 121.423 29.4788 121.182 29.8764C120.967 30.2245 120.756 30.4972 120.55 30.6935ZM116.06 30.2651C115.997 30.4797 115.979 30.6538 116.007 30.7873C116.033 30.9216 116.123 30.9884 116.276 30.9884C116.42 30.9884 116.559 30.9129 116.693 30.7611C116.837 30.5997 116.989 30.2921 117.151 29.8359L117.366 29.2333H117.622L117.299 30.211C117.182 30.5775 117.025 30.8589 116.828 31.0552C116.66 31.2378 116.453 31.3799 116.221 31.4709C116.02 31.5489 115.805 31.5898 115.589 31.5917C115.033 31.5917 114.7 31.3723 114.593 30.9352C114.536 30.744 114.518 30.5436 114.539 30.3454C114.557 30.1133 114.61 29.8446 114.7 29.5417L114.789 29.2095C114.661 29.4909 114.532 29.7444 114.404 29.9702C114.099 30.5242 113.771 30.9352 113.422 31.2022C113.08 31.4586 112.664 31.5956 112.236 31.5917C111.949 31.5917 111.689 31.5281 111.456 31.4041C111.215 31.2626 111.023 31.0524 110.904 30.8008C110.769 30.5242 110.701 30.1713 110.701 29.7429C110.701 29.3319 110.769 28.8844 110.904 28.4027C111.038 27.9115 111.231 27.425 111.482 26.9425C111.73 26.4649 112.043 26.0231 112.411 25.6294C112.779 25.2272 113.187 24.9061 113.636 24.6644C114.097 24.4227 114.61 24.2984 115.131 24.3028C115.4 24.3028 115.611 24.3743 115.764 24.5174C115.852 24.5945 115.918 24.6922 115.961 24.8115L116.585 22.4674C116.666 22.1638 116.653 21.9404 116.545 21.7973C116.437 21.6542 116.163 21.5827 115.724 21.5827L115.818 21.3021C116.347 21.2991 116.874 21.2496 117.393 21.1543C117.84 21.0596 118.277 20.9252 118.7 20.7529L116.06 30.2651ZM114.956 28.2684C115.076 27.9743 115.187 27.6643 115.288 27.3376L115.87 25.1533C115.842 25.0229 115.782 24.9012 115.697 24.7987C115.644 24.7372 115.578 24.6883 115.503 24.6558C115.428 24.6233 115.347 24.6081 115.266 24.6112C114.997 24.6112 114.723 24.7185 114.445 24.9323C114.175 25.1469 113.919 25.4418 113.677 25.817C113.421 26.2098 113.204 26.627 113.031 27.0625C112.84 27.5355 112.691 28.0244 112.587 28.5235C112.48 29.0077 112.426 29.5017 112.425 29.9972C112.425 30.3366 112.46 30.591 112.532 30.7603C112.613 30.9216 112.739 31.0019 112.909 31.0019C113.089 31.0019 113.295 30.8946 113.529 30.68C113.763 30.4574 114 30.1443 114.243 29.7421C114.523 29.2721 114.761 28.779 114.956 28.2684Z" fill="#283841"/>
<path d="M103.287 31.4034H104.943L105.098 30.7977L105.09 30.8414C105.261 30.2158 105.454 29.6133 105.67 29.0323C105.879 28.4777 106.113 27.9325 106.369 27.398C106.612 26.8972 106.854 26.46 107.097 26.0849C107.339 25.7097 107.572 25.4196 107.797 25.2137C108.021 24.9991 108.228 24.8926 108.416 24.8926C108.569 24.8926 108.663 24.9458 108.699 25.0531C108.736 25.1749 108.741 25.3042 108.712 25.4283C108.686 25.5735 108.65 25.7168 108.605 25.8575L107.38 29.5418C107.254 29.9169 107.182 30.2381 107.164 30.5059C107.146 30.7738 107.195 30.9932 107.312 31.1625C107.402 31.2968 107.528 31.3994 107.689 31.4709C107.86 31.5504 108.062 31.5917 108.295 31.5917C108.51 31.5917 108.726 31.5512 108.942 31.4709C109.166 31.3994 109.372 31.265 109.561 31.0687C109.758 30.8724 109.92 30.5862 110.046 30.211L110.382 29.2334H110.126L109.911 29.8359C109.741 30.3009 109.579 30.6085 109.427 30.7603C109.283 30.9129 109.144 30.9884 109.009 30.9884C108.865 30.9884 108.776 30.9304 108.74 30.8136C108.704 30.6896 108.726 30.5059 108.807 30.2651L110.126 26.3257C110.243 25.9776 110.301 25.6517 110.301 25.348C110.31 25.0356 110.225 24.7853 110.046 24.5977C109.875 24.4013 109.57 24.3036 109.13 24.3036C108.798 24.3036 108.479 24.3751 108.174 24.5174C107.869 24.6605 107.572 24.91 107.286 25.2677C106.998 25.6159 106.702 26.0896 106.397 26.6874C106.194 27.0906 106.008 27.5019 105.84 27.9202L106.289 26.1787C106.343 25.964 106.383 25.7494 106.41 25.5356C106.437 25.313 106.428 25.1111 106.383 24.9323C106.34 24.7476 106.23 24.5853 106.074 24.4768C105.921 24.3608 105.697 24.3028 105.4 24.3028C105.041 24.3028 104.713 24.4013 104.417 24.5977C104.121 24.794 103.879 25.1557 103.69 25.6827L103.34 26.6874H103.596L103.825 26.0578C103.986 25.6207 104.134 25.321 104.269 25.1604C104.413 24.9911 104.57 24.9061 104.741 24.9061C104.866 24.9061 104.943 24.9418 104.97 25.0134C105.005 25.0849 105.015 25.1739 104.996 25.2813C104.976 25.3988 104.949 25.515 104.915 25.6294L103.287 31.4034Z" fill="#283841"/>
<path fill-rule="evenodd" clip-rule="evenodd" d="M99.8547 29.5418L99.9114 29.3335C99.7676 29.6756 99.5955 30.0053 99.397 30.3191C99.1094 30.7738 98.8042 31.1005 98.4807 31.2968C98.1667 31.4932 97.8392 31.5909 97.4981 31.5909C97.0132 31.5909 96.6545 31.4439 96.4212 31.149C96.1872 30.8454 96.0706 30.4439 96.0706 29.9432C96.0706 29.479 96.1472 28.9925 96.2998 28.483C96.4556 27.9572 96.6677 27.4495 96.9325 26.9688C97.1963 26.4892 97.5125 26.0401 97.8752 25.6294C98.1958 25.2527 98.5727 24.9272 98.9927 24.6644C99.3874 24.4236 99.7828 24.3028 100.177 24.3028C100.483 24.3028 100.716 24.4323 100.878 24.6923C100.964 24.825 101.016 24.9967 101.033 25.2073L101.228 24.4904C101.551 24.4816 101.852 24.4641 102.13 24.4371C102.417 24.4101 102.691 24.3656 102.951 24.3028L101.214 30.2524C101.178 30.3614 101.151 30.4734 101.134 30.587C101.123 30.6817 101.133 30.7774 101.161 30.8684C101.197 30.9399 101.273 30.9757 101.389 30.9757C101.533 30.9757 101.681 30.9002 101.833 30.7484C101.986 30.5966 102.143 30.2874 102.305 29.8239L102.507 29.2206H102.763L102.426 30.1983C102.301 30.5648 102.143 30.8501 101.955 31.0568C101.787 31.2389 101.58 31.3808 101.349 31.4717C101.152 31.5504 100.942 31.5913 100.729 31.5925C100.299 31.5925 99.9937 31.4582 99.814 31.1903C99.6973 30.994 99.6526 30.7532 99.6798 30.467C99.7111 30.1544 99.7697 29.8443 99.8547 29.5418ZM98.1979 30.9749C98.3601 30.9749 98.5438 30.8811 98.7507 30.6935C98.9568 30.4972 99.1677 30.2246 99.3834 29.8764C99.5983 29.5283 99.8052 29.1133 100.002 28.6308C100.2 28.1484 100.371 27.6214 100.515 27.049L100.469 27.2827L100.867 25.8194C100.909 25.4935 100.886 25.2336 100.797 25.0404C100.707 24.8258 100.555 24.7185 100.339 24.7185C100.133 24.7185 99.913 24.8258 99.6798 25.0396C99.4553 25.2542 99.2308 25.5444 99.0063 25.9108C98.7819 26.2764 98.575 26.6921 98.3864 27.1564C98.2056 27.6268 98.0616 28.1105 97.9558 28.603C97.8503 29.083 97.7962 29.5727 97.7945 30.064C97.7945 30.3947 97.8256 30.6315 97.8887 30.7738C97.9606 30.9081 98.0637 30.9749 98.1979 30.9749Z" fill="#283841"/>
<path d="M97.0044 24.7582L97.0452 24.4903H95.4411L96.0754 22.2933C95.81 22.3583 95.54 22.4033 95.2677 22.4276C94.9897 22.4539 94.6886 22.4722 94.3658 22.4809L93.7867 24.4903H92.5612L92.4941 24.7582H93.71L92.332 29.5417C92.2153 29.9344 92.1754 30.2873 92.2113 30.5997C92.2561 30.9034 92.3815 31.145 92.5884 31.3231C92.8033 31.5019 93.1132 31.5917 93.5175 31.5917C93.9752 31.5917 94.3698 31.4709 94.7021 31.2293C95.0345 30.9884 95.2949 30.591 95.4834 30.037L95.7526 29.2333H95.4962L95.2949 29.7826C95.1327 30.2293 94.9538 30.5417 94.7557 30.7205C94.5671 30.8994 94.3786 30.9884 94.1901 30.9884C94.116 30.9909 94.0423 30.9764 93.9747 30.9461C93.9072 30.9157 93.8475 30.8704 93.8002 30.8135C93.71 30.6983 93.7012 30.5155 93.7731 30.2651L95.3636 24.7582H97.0044ZM92.5453 21.8243C92.4558 22.0564 92.3344 22.3966 92.1818 22.8426C92.038 23.2798 91.895 23.8521 91.7512 24.5571H91.482C91.5083 24.4323 91.5267 24.3027 91.5355 24.1692C91.5527 24.0494 91.5618 23.9286 91.5627 23.8075C91.5627 23.4586 91.4908 23.1557 91.347 22.8966C91.2089 22.6249 90.9872 22.4041 90.7143 22.2663C90.4363 22.1057 90.0768 22.0254 89.6374 22.0254C89.1613 22.0254 88.7571 22.1502 88.4256 22.4006C88.0933 22.6415 87.9271 23.0302 87.9271 23.5659C87.9271 23.8966 88.003 24.2098 88.1556 24.5039C88.3177 24.79 88.5198 25.0714 88.7619 25.348C89.0135 25.6159 89.278 25.8885 89.556 26.1651C89.8348 26.433 90.0952 26.7104 90.3372 26.9958C90.5793 27.2819 90.7774 27.5856 90.93 27.9067C91.0913 28.2199 91.172 28.5633 91.172 28.9384C91.172 29.4122 91.0554 29.8184 90.8221 30.1578C90.5946 30.4912 90.2956 30.7703 89.9466 30.9749C89.5808 31.183 89.1862 31.3365 88.7755 31.4304C88.3801 31.5354 87.9728 31.5897 87.5636 31.5917C87.1594 31.5917 86.8231 31.5599 86.5539 31.4979C86.3238 31.4548 86.1014 31.3779 85.894 31.2698C85.7178 31.1736 85.5425 31.0756 85.3684 30.9757C85.2891 30.9095 85.1977 30.8593 85.0992 30.8279C85.0364 30.7965 84.9679 30.7781 84.8979 30.7738C84.7804 30.7738 84.6822 30.8318 84.6015 30.9487C84.4956 31.1232 84.4055 31.3067 84.3323 31.4971H84.0623C84.2847 30.9523 84.4694 30.393 84.6151 29.8231C84.7221 29.4122 84.8435 28.8987 84.9785 28.2819H85.2478C85.2102 28.4593 85.1787 28.638 85.1535 28.8176C85.1263 28.9965 85.1175 29.1753 85.1263 29.3542C85.1535 29.9789 85.346 30.4614 85.7055 30.8008C86.0738 31.1402 86.6122 31.3095 87.3208 31.3095C87.9223 31.3095 88.3761 31.1847 88.6812 30.9352C88.9864 30.676 89.139 30.3009 89.139 29.8096C89.139 29.4344 89.0671 29.0942 88.9233 28.7914C88.7875 28.4764 88.6061 28.1829 88.3848 27.9202C88.1566 27.6484 87.9187 27.3849 87.6715 27.1301C87.4237 26.8753 87.1855 26.6115 86.9573 26.3392C86.7369 26.0687 86.5514 25.7717 86.4053 25.4553C86.2583 25.117 86.185 24.7516 86.1904 24.383C86.1904 23.9371 86.2847 23.5484 86.4732 23.2178C86.6631 22.8952 86.9199 22.6167 87.2265 22.4006C87.5409 22.1773 87.8917 22.0095 88.2634 21.9046C88.625 21.791 89.0018 21.7323 89.381 21.7305C89.8659 21.7305 90.2653 21.7886 90.5793 21.9054C90.894 22.0207 91.1632 22.1598 91.3877 22.3203L91.6434 22.4809C91.724 22.5167 91.7871 22.5342 91.8319 22.5342C91.9573 22.5342 92.1059 22.2981 92.276 21.8243H92.5453Z" fill="#283841"/>
<path fill-rule="evenodd" clip-rule="evenodd" d="M79.5478 30.7873C79.5207 30.6538 79.5391 30.4797 79.6022 30.2651L82.2408 20.7529C81.8183 20.9252 81.3812 21.0596 80.9347 21.1543C80.4769 21.2441 79.9521 21.2926 79.3593 21.3021L79.2651 21.5835C79.7044 21.5835 79.9792 21.655 80.0863 21.7981C80.1941 21.9412 80.2077 22.1638 80.127 22.4674L79.5023 24.8115C79.4631 24.6984 79.3954 24.5971 79.3058 24.5174C79.1532 24.3743 78.9423 24.3028 78.6731 24.3028C78.1339 24.3028 77.6362 24.4236 77.1785 24.6644C76.718 24.9147 76.3036 25.241 75.953 25.6294C75.5846 26.0229 75.2721 26.4647 75.024 26.9425C74.7794 27.4074 74.5853 27.8969 74.4448 28.4027C74.3169 28.8383 74.249 29.2891 74.2427 29.7429C74.2427 30.1713 74.3106 30.5242 74.4448 30.8008C74.5798 31.0687 74.7635 31.2698 74.9968 31.4033C75.2301 31.5289 75.4905 31.5909 75.7781 31.5909C76.2174 31.5909 76.6129 31.4622 76.9628 31.203C77.3127 30.9352 77.6402 30.5242 77.9453 29.9702C78.0732 29.7444 78.2018 29.4909 78.3304 29.2095L78.2425 29.5417C78.1608 29.8034 78.1065 30.0727 78.0804 30.3454C78.0589 30.5436 78.0771 30.744 78.1339 30.9352C78.2417 31.3723 78.5732 31.5917 79.1308 31.5917C79.3369 31.5917 79.5478 31.5512 79.7635 31.4709C79.9792 31.3906 80.1805 31.2523 80.3691 31.0552C80.5672 30.8589 80.7238 30.5783 80.8404 30.211L81.1639 29.2333H80.9083L80.6926 29.8359C80.5312 30.2921 80.3787 30.5997 80.2349 30.7603C80.0999 30.9129 79.9609 30.9884 79.8171 30.9884C79.6653 30.9884 79.575 30.9216 79.5478 30.7873ZM78.8289 27.3376C78.7282 27.6643 78.618 27.9751 78.4974 28.2684C78.2737 28.8407 78.0356 29.3319 77.784 29.7429C77.5419 30.1443 77.3039 30.4566 77.0706 30.6808C76.8373 30.8946 76.6312 31.0019 76.4507 31.0019C76.2805 31.0019 76.1551 30.9216 76.0744 30.7611C76.0025 30.591 75.9666 30.3366 75.9666 29.9972C75.9666 29.5147 76.0201 29.0235 76.128 28.5235C76.2358 28.0148 76.3836 27.5275 76.5721 27.0633C76.7458 26.6276 76.9626 26.2101 77.2192 25.817C77.4612 25.4418 77.7169 25.1469 77.9861 24.9323C78.2641 24.7177 78.5381 24.6112 78.8073 24.6112C78.9871 24.6112 79.1308 24.674 79.2387 24.7987C79.3138 24.8798 79.3713 24.9975 79.4112 25.1533L78.8289 27.3376Z" fill="#283841"/>
<path d="M68.4839 31.4034H66.8279L68.4575 25.6294C68.4935 25.5046 68.5198 25.3886 68.5374 25.2813C68.5574 25.1914 68.5482 25.0976 68.5111 25.0134C68.4839 24.9418 68.4072 24.9061 68.2818 24.9061C68.1116 24.9061 67.9543 24.9911 67.8105 25.1604C67.6763 25.321 67.5277 25.6207 67.3663 26.0586L67.1378 26.6874H66.8822L67.2321 25.6827C67.4206 25.1557 67.6635 24.794 67.9591 24.5977C68.2546 24.4013 68.5822 24.3036 68.9416 24.3036C69.238 24.3036 69.4625 24.3608 69.6151 24.4768C69.7715 24.5852 69.882 24.7475 69.925 24.9323C69.9698 25.1111 69.9786 25.3123 69.9522 25.5356C69.9247 25.7522 69.8842 25.9669 69.8308 26.1787L69.3818 27.921C69.5719 27.4528 69.7573 27.0427 69.9386 26.6874C70.2438 26.0896 70.5393 25.6159 70.8269 25.2677C71.1145 24.91 71.4101 24.6605 71.7153 24.5174C72.0212 24.3743 72.3392 24.3028 72.6715 24.3028C73.1108 24.3028 73.4168 24.4013 73.587 24.5977C73.7667 24.7853 73.8522 25.0348 73.8426 25.348C73.8426 25.6517 73.7851 25.9776 73.6676 26.3257L72.3487 30.2651C72.2673 30.5059 72.2449 30.6896 72.2808 30.8136C72.3168 30.9304 72.4071 30.9884 72.5508 30.9884C72.6851 30.9884 72.8241 30.9129 72.9679 30.7611C73.1204 30.6085 73.2818 30.3001 73.4527 29.8359L73.6684 29.2334H73.9241L73.587 30.211C73.4615 30.5862 73.2994 30.8724 73.1029 31.0695C72.9337 31.2533 72.7204 31.3914 72.4829 31.4709C72.2766 31.5497 72.0577 31.5906 71.8367 31.5917C71.6034 31.5917 71.4013 31.5512 71.2311 31.4709C71.069 31.3994 70.9436 31.296 70.8541 31.1625C70.7375 30.9932 70.6879 30.7738 70.7055 30.5059C70.7239 30.2381 70.7958 29.9169 70.9212 29.5418L72.1466 25.8575C72.1914 25.7145 72.2273 25.5714 72.2545 25.4283C72.2827 25.3042 72.278 25.1749 72.2409 25.0531C72.2049 24.9458 72.1107 24.8926 71.9581 24.8926C71.7696 24.8926 71.5627 24.9999 71.339 25.2137C71.1145 25.4196 70.8805 25.7097 70.6384 26.0849C70.3697 26.5076 70.1269 26.9461 69.9114 27.398C69.6694 27.8988 69.4353 28.4425 69.2109 29.0323C68.9952 29.6125 68.8034 30.2158 68.6325 30.8414L68.6405 30.7977L68.4839 31.4034Z" fill="#283841"/>
<path fill-rule="evenodd" clip-rule="evenodd" d="M63.4526 29.3335L63.3967 29.5418C63.3119 29.8444 63.2531 30.1537 63.221 30.4662C63.1938 30.7523 63.2385 30.9932 63.3552 31.1895C63.5349 31.4574 63.8401 31.5917 64.2714 31.5917C64.5017 31.5901 64.7291 31.5417 64.9399 31.4494C65.1506 31.3571 65.3401 31.223 65.4969 31.0552C65.6854 30.8501 65.842 30.564 65.9682 30.1983L66.3037 29.2206H66.0481L65.8468 29.8231C65.6846 30.2874 65.5272 30.5958 65.3755 30.7476C65.2229 30.8986 65.0743 30.9749 64.9313 30.9749C64.8139 30.9749 64.738 30.9391 64.702 30.8676C64.6739 30.7766 64.6647 30.6809 64.6749 30.5862C64.6932 30.4702 64.7196 30.3589 64.7563 30.2516L66.493 24.3028C66.2229 24.367 65.9484 24.4119 65.6718 24.4371C65.393 24.4641 65.0927 24.4816 64.7691 24.4904L64.5742 25.2073C64.5659 25.0253 64.5127 24.8481 64.4192 24.6915C64.3491 24.5695 64.2469 24.4688 64.1236 24.4003C64.0003 24.3318 63.8606 24.2981 63.7194 24.3028C63.324 24.3028 62.9286 24.4236 62.5339 24.6644C62.1393 24.9061 61.767 25.2272 61.4164 25.6294C61.0537 26.0401 60.7376 26.4892 60.4737 26.9688C60.2089 27.4495 59.9968 27.9572 59.841 28.483C59.6941 28.9561 59.6172 29.448 59.6125 29.9432C59.6125 30.4439 59.7292 30.8454 59.9624 31.149C60.1957 31.4439 60.5552 31.5909 61.0393 31.5909C61.3804 31.5909 61.7087 31.4932 62.0219 31.2968C62.3454 31.0997 62.6514 30.7738 62.9382 30.3191C63.1163 30.0449 63.2873 29.7166 63.4526 29.3335ZM62.2919 30.6935C62.0858 30.8811 61.9013 30.9749 61.7399 30.9749C61.6049 30.9749 61.5018 30.9081 61.4299 30.7738C61.3676 30.6307 61.3357 30.3947 61.3357 30.064C61.3357 29.5903 61.39 29.1038 61.4978 28.6038C61.6049 28.103 61.7487 27.6214 61.9284 27.1571C62.1169 26.6921 62.323 26.2772 62.5475 25.9108C62.772 25.5451 62.9965 25.2542 63.221 25.0396C63.4542 24.825 63.6739 24.7185 63.8808 24.7185C64.0965 24.7185 64.2483 24.8258 64.3385 25.0396C64.428 25.2336 64.4504 25.4935 64.408 25.8186L64.0102 27.2827L64.0558 27.0498C63.912 27.6214 63.7418 28.1484 63.5445 28.6308C63.3464 29.1125 63.1403 29.5282 62.9246 29.8764C62.7089 30.2246 62.498 30.4972 62.2919 30.6935Z" fill="#283841"/>
<path d="M56.0115 31.4033H54.3555L55.9707 25.6294C56.0514 25.3615 56.0786 25.1739 56.0514 25.0666C56.0251 24.9593 55.9444 24.9061 55.8094 24.9061C55.6392 24.9061 55.4819 24.9911 55.3381 25.1604C55.1943 25.3297 55.0465 25.6294 54.8939 26.0586L54.6646 26.6874H54.409L54.7589 25.6827C54.8851 25.325 55.0417 25.0491 55.2302 24.852C55.4187 24.6469 55.6256 24.5039 55.8501 24.4236C56.0738 24.3433 56.3031 24.3028 56.5371 24.3028C56.8239 24.3028 57.0348 24.3608 57.169 24.4776C57.3118 24.5916 57.4078 24.7536 57.439 24.9331C57.4838 25.1207 57.4926 25.3258 57.4654 25.5491C57.4478 25.7637 57.4119 25.9736 57.3576 26.1787L57.1419 27.0188L57.1634 26.9608L57.1962 26.8758C57.4478 26.2414 57.6899 25.7367 57.9231 25.3615C58.166 24.9776 58.4216 24.705 58.6908 24.5444C58.9546 24.3849 59.2577 24.3012 59.5664 24.3028C59.8891 24.3028 60.1359 24.3966 60.3069 24.5841C60.4858 24.7717 60.5761 25.0038 60.5761 25.2812C60.5761 25.5038 60.5218 25.7144 60.414 25.9108C60.3095 26.095 60.1617 26.2512 59.9834 26.3662C59.8054 26.4754 59.5996 26.5311 59.3906 26.5268C59.1669 26.5268 58.9872 26.4688 58.8522 26.3527C58.7268 26.2367 58.6637 26.0666 58.6637 25.844C58.6637 25.6469 58.7084 25.4688 58.7987 25.3075C58.8881 25.1469 59.0048 25.0134 59.1486 24.9061C59.2924 24.79 59.4489 24.7097 59.6199 24.6644C59.601 24.6461 59.578 24.6325 59.5528 24.6247C59.5349 24.6186 59.5164 24.6146 59.4977 24.6128C59.4844 24.6115 59.4711 24.611 59.4577 24.6112C59.2612 24.6112 59.0583 24.6827 58.8522 24.8258C58.6461 24.9593 58.4304 25.1787 58.2059 25.4823C57.9823 25.786 57.753 26.1874 57.5189 26.6874C57.2557 27.2785 57.0222 27.8823 56.8191 28.4965C56.7177 28.793 56.6154 29.1133 56.5132 29.4559L56.0115 31.4033Z" fill="#283841"/>
<path fill-rule="evenodd" clip-rule="evenodd" d="M53.4925 22.4141C53.0436 22.0922 52.3254 21.9316 51.338 21.9316C51.0329 21.9316 50.7277 21.9364 50.4217 21.9452C50.1262 21.9539 49.7851 21.9587 49.3992 21.9587H48.7258C48.4829 21.9491 48.2545 21.9452 48.0388 21.9452C47.8592 21.9373 47.6798 21.9283 47.5003 21.9181L47.4332 22.186C47.7831 22.186 48.0212 22.2305 48.1466 22.3203C48.2816 22.3998 48.3439 22.5254 48.3351 22.6955C48.317 22.9125 48.281 23.1275 48.2273 23.3386L46.4499 29.9837C46.37 30.3048 46.2797 30.5465 46.1806 30.707C46.0912 30.8606 45.9473 30.9754 45.7772 31.029C45.6063 31.0822 45.3682 31.118 45.063 31.1355L45.0095 31.4033C45.1613 31.3954 45.3458 31.3906 45.5607 31.3906C45.7764 31.3811 46.0057 31.3771 46.2477 31.3771C46.9254 31.3566 47.6035 31.3611 48.2808 31.3906C48.6491 31.3986 48.9862 31.4041 49.2914 31.4041C49.8745 31.4041 50.4265 31.3453 50.9474 31.2293C51.4275 31.1209 51.8866 30.9357 52.307 30.6808C52.6831 30.4579 53.0013 30.1502 53.2361 29.7826C53.4693 29.4249 53.586 29.006 53.586 28.5235C53.586 27.9782 53.3623 27.5093 52.9134 27.1166C52.474 26.7231 51.7774 26.491 50.826 26.4195C51.4196 26.3347 51.9963 26.1585 52.5355 25.8973C53.0388 25.6381 53.4334 25.321 53.721 24.9458C54.0105 24.5896 54.1674 24.1448 54.1651 23.6867C54.1651 23.151 53.9423 22.7265 53.4925 22.4141ZM49.1947 26.5944L48.2944 29.9837C48.2409 30.2063 48.2049 30.4034 48.1873 30.5727C48.1778 30.7428 48.2225 30.8724 48.3216 30.9622C48.4206 31.0512 48.6044 31.0957 48.8736 31.0957C49.511 31.0957 50.0319 30.9749 50.4353 30.7341C50.8306 30.5028 51.1455 30.157 51.338 29.7429C51.5353 29.3136 51.6336 28.8311 51.6336 28.2962C51.6336 27.9647 51.5753 27.6746 51.4586 27.425C51.356 27.1714 51.1713 26.9592 50.9338 26.8217C50.6917 26.6699 50.3682 26.5944 49.964 26.5944H49.1947ZM49.2554 26.3662H49.8705C50.3818 26.3662 50.8172 26.2367 51.1758 25.9775C51.5441 25.7097 51.8229 25.3615 52.0114 24.9331C52.2078 24.5086 52.3086 24.0467 52.307 23.5794C52.307 23.1327 52.2176 22.7893 52.0378 22.5477C51.8677 22.3068 51.5665 22.186 51.1351 22.186C50.822 22.186 50.5975 22.2488 50.4625 22.3736C50.3283 22.4896 50.2116 22.744 50.1126 23.1367L49.2554 26.3662Z" fill="#283841"/>
</g>
<defs>
<clipPath id="clip0_23_957">
<rect width="139" height="31" fill="white" transform="translate(0 0.9375)"/>
</clipPath>
</defs>
</svg>
