<svg width="140" height="33" viewBox="0 0 140 33" fill="none" xmlns="http://www.w3.org/2000/svg">
<g clip-path="url(#clip0_23_946)">
<path d="M136.315 7.06882L139.654 10.4309C139.771 10.5238 139.858 10.6492 139.902 10.7912C139.97 11.6187 139.344 11.664 138.704 11.7102C138.427 11.7302 138.148 11.7505 137.922 11.8343C136.798 12.1382 135.797 12.7801 135.052 13.6729C134.306 14.5657 133.854 15.6662 133.756 16.8249C133.684 16.9588 133.575 17.0689 133.442 17.1421C133.309 17.2154 133.158 17.2485 133.006 17.2377C132.83 17.2221 132.665 17.1451 132.54 17.0201L131.444 15.9165C131.452 15.9921 131.452 16.0669 131.452 16.127V16.8549C131.452 16.9009 131.454 16.9453 131.448 16.9895C131.441 17.0391 131.424 17.0885 131.385 17.1401V17.2077C131.385 17.2421 131.389 17.2742 131.393 17.3068C131.401 17.3734 131.41 17.4421 131.385 17.5379C131.361 17.6273 131.358 17.7315 131.355 17.8245C131.354 17.8798 131.353 17.9312 131.347 17.9731C131.339 18.0313 131.339 18.0933 131.334 18.1553C131.33 18.2134 131.32 18.2714 131.294 18.3258C131.259 18.402 131.247 18.4747 131.244 18.5486C131.242 18.584 131.242 18.6196 131.242 18.6561L131.197 18.8887L129.494 27.0088L129.358 27.6166L129.306 28.5022L128.555 32.3371L128.435 32.9375H67.6998L67.4071 32.6448L67.3546 32.9H60.8555L57.2382 29.2602L57.5834 27.6166H55.5422L54.2739 26.3333C52.6999 27.4795 50.7947 28.0803 48.848 28.0445C46.7554 28.1268 44.7153 27.3765 43.1745 25.9581L41.2007 23.9694L40.773 25.9656C40.7205 26.2508 40.6529 26.521 40.5778 26.7837L40.5103 27.0313L40.3978 27.3915C40.3885 27.4228 40.3759 27.453 40.3602 27.4816C40.2485 27.8125 40.1157 28.1358 39.9625 28.4497C39.9665 28.4618 39.9665 28.475 39.9625 28.4872C39.9428 28.5288 39.9202 28.5689 39.8949 28.6073C39.7816 28.8315 39.6564 29.0494 39.5197 29.2602C39.4943 29.2985 39.4718 29.3387 39.4522 29.3803L39.3696 29.4703C39.1862 29.7334 38.9856 29.9841 38.7692 30.2208C38.7098 30.2801 38.6505 30.3359 38.5902 30.3906C38.5286 30.4466 38.466 30.5016 38.4014 30.5585L38.2364 30.7161C38.1323 30.8025 38.0258 30.886 37.9171 30.9664C37.8274 31.0327 37.7362 31.0969 37.6435 31.1589C36.0969 32.0753 34.3128 32.5114 32.5178 32.4121C30.0413 32.4121 28.06 31.6917 26.8067 30.4309L23.2795 26.8812C21.8706 27.6785 20.2754 28.0877 18.6566 28.0669C16.5703 28.1315 14.5426 27.3711 13.0131 25.9506L11.0394 23.9619L10.4015 27.0313L10.2739 27.6392H3.63229L0 23.9769L0.187617 23.0913L4.18012 3.91684L4.30017 3.31648H10.9643L11.137 3.4816V3.31648H56.0375L56.2026 3.4816V3.31648H62.7017L66.3339 6.97876L66.1538 7.8568L65.9587 8.81742H67.8274L68.1201 9.11014C68.9423 8.62825 69.8762 8.36954 70.8293 8.35965C71.5301 8.34581 72.226 8.47892 72.8722 8.75036C73.5186 9.02182 74.1008 9.4255 74.5816 9.93558L74.484 9.82302L76.2476 11.6017C77.3208 9.58294 79.7298 8.35965 83.0016 8.35965C85.5384 8.35965 87.4072 9.00502 88.54 10.1757L89.816 11.4591L90.244 9.39526L90.3712 8.79488H96.8776L98.7392 10.6636L99.0016 9.40278L99.1296 8.8024H111.933L112.278 9.14766C113.145 8.63595 114.138 8.37604 115.145 8.39716C115.75 8.37352 116.354 8.48442 116.912 8.72188C117.47 8.95934 117.968 9.3175 118.371 9.77054C118.35 9.74694 118.33 9.72334 118.31 9.70014C118.274 9.6571 118.238 9.6151 118.2 9.57622L118.852 10.2283C119.42 9.64006 120.103 9.17422 120.858 8.85938C121.613 8.54452 122.424 8.38718 123.242 8.39716C123.676 8.37046 124.11 8.40742 124.53 8.50576L123.82 7.78928C123.723 7.68572 123.658 7.55687 123.631 7.41767C123.605 7.27847 123.618 7.13455 123.67 7.00268C123.722 6.87076 123.81 6.75624 123.924 6.67233C124.038 6.58842 124.174 6.53853 124.315 6.5285H124.886C125.039 6.51384 125.192 6.49131 125.343 6.46094C126.141 6.29329 126.891 5.95049 127.54 5.45726C128.19 4.96408 128.721 4.33284 129.096 3.60917C129.129 3.5532 129.158 3.49562 129.186 3.43657V3.39906C129.444 2.84322 129.601 2.24615 129.651 1.63543C129.664 1.44566 129.75 1.26798 129.889 1.13845C130.028 1.00887 130.211 0.937044 130.402 0.937502H130.462C130.575 0.948312 130.686 0.985048 130.783 1.04487C130.881 1.10474 130.963 1.18609 131.025 1.28273C131.565 1.80807 134.566 4.86244 134.566 4.86244C134.817 5.1314 134.798 5.48058 134.779 5.83387C134.767 6.05232 134.755 6.27236 134.806 6.47596C134.943 6.50047 135.082 6.51902 135.219 6.53157C135.352 6.54352 135.485 6.55003 135.618 6.551C135.773 6.55424 135.924 6.60582 136.049 6.69862C136.174 6.79138 136.267 6.92078 136.315 7.06882Z" fill="#283841"/>
<path d="M34.3489 9.5379H39.0918L36.4352 22.1382C35.9474 24.5247 35.0168 25.8906 33.6059 26.8587C32.1789 27.6868 30.5402 28.0781 28.893 27.9844C25.7561 27.9844 22.7466 26.6711 22.4465 23.4816H27.2194C27.3695 24.2321 28.06 24.6598 29.1106 24.6598C30.529 24.6598 31.1819 23.8043 31.4746 22.4609L31.7598 21.0725H31.6547C31.2359 21.5329 30.7279 21.9033 30.1616 22.1613C29.5952 22.4193 28.9824 22.5596 28.3602 22.5735C25.5985 22.5735 23.407 20.3746 23.4521 17.1551C23.5122 13.4028 25.9586 9.14014 30.0638 9.14014C30.8417 9.08774 31.6183 9.25918 32.3019 9.63422C32.9855 10.0092 33.5474 10.5721 33.9211 11.2565H34.0037L34.3489 9.5379ZM30.2738 19.0538C32.0975 19.0538 33.1106 16.9525 33.1406 15.1439C33.1406 13.9357 32.6678 12.6973 31.272 12.6973C29.3658 12.6973 28.3977 14.8212 28.3677 16.6448C28.3677 17.8756 28.8405 19.0538 30.2363 19.0538M83.52 19.4591C83.52 20.2621 82.8288 20.5848 81.9208 20.5848C80.42 20.5848 79.9174 19.8343 79.9098 18.7837H75.1894C75.1069 22.7011 78.6041 23.6692 81.7112 23.6692C85.6808 23.6692 88.2552 21.9506 88.308 18.521C88.308 15.7817 85.9736 14.9488 83.6776 14.4159C81.9136 14.0107 81.1408 13.718 81.148 13.0501C81.156 12.3821 81.944 12.112 82.7168 12.112C83.6848 12.112 84.3448 12.4572 84.4128 13.3428H88.9984C88.9456 10.0707 85.996 9.11014 82.9944 9.11014C79.347 9.11014 76.5027 10.7686 76.4577 13.9056C76.4577 16.3746 78.1238 17.2827 80.6376 17.9281C82.2512 18.3559 83.5344 18.4909 83.52 19.4591ZM118.589 11.5717H118.506C118.302 10.8326 117.851 10.1857 117.229 9.7379C116.606 9.29022 115.85 9.0687 115.084 9.11014C113.043 9.11014 111.798 10.1233 110.619 11.6542H110.537L110.972 9.5379H106.198L103.339 23.2114H108.33L109.831 15.8343C110.176 14.2283 110.994 13.1026 112.233 13.1026C113.471 13.1026 113.636 14.0932 113.381 15.3015L111.73 23.2114H116.72L118.222 15.8343C118.566 14.1233 119.385 13.1026 120.622 13.1026C121.861 13.1026 122.026 14.0407 121.771 15.3015L120.12 23.2114H125.11L126.897 15.0838C127.647 11.6542 126.499 9.08006 123.205 9.08006C122.288 9.0763 121.386 9.30238 120.579 9.73766C119.773 10.1729 119.089 10.8035 118.589 11.5717ZM0.915527 23.2114H6.07125L10.0562 4.03694H4.90802L0.915527 23.2114ZM16.4352 9.13262C19.9174 9.13262 23.242 11.0388 23.1894 15.354C23.1444 20.0745 19.9324 23.6092 15.0243 23.6092C11.6472 23.6092 8.27016 21.733 8.33016 17.4403C8.41272 12.8325 11.5797 9.13262 16.4352 9.13262ZM15.167 20.2621C17.3658 20.2621 18.1688 17.0725 18.1688 15.1964C18.1688 13.8531 17.7561 12.5397 16.3076 12.5397C14.1313 12.5397 13.3883 15.9169 13.3883 17.658C13.3883 19.0538 13.7786 20.2621 15.197 20.2621M11.7748 4.03694L11.0243 7.87184H54.3189L55.0694 4.03694H11.7748ZM46.5966 9.13262C50.0787 9.13262 53.4033 11.0388 53.3508 15.354C53.3058 20.0745 50.0862 23.6092 45.1782 23.6092C41.801 23.6092 38.4239 21.733 38.4915 17.4403C38.5966 12.8325 41.7635 9.13262 46.5966 9.13262ZM45.3508 20.2621C47.5497 20.2621 48.3526 17.0725 48.3526 15.1964C48.3526 13.8531 47.9324 12.5397 46.484 12.5397C44.3151 12.5397 43.5646 15.9169 43.5646 17.658C43.5646 19.0538 43.9549 20.2621 45.3808 20.2621M56.8405 4.03694L56.09 7.87184H61.0731L61.8236 4.03694H56.8405ZM52.848 23.2114H57.8386L60.6978 9.5379H55.6772L52.848 23.2114ZM68.7729 23.6692C67.9786 23.7256 67.1843 23.5596 66.479 23.1897C65.7738 22.8199 65.1856 22.2609 64.7804 21.5754H64.6978L63.197 28.4947H58.1462L62.1988 9.5379H66.9418L66.5666 11.3615C67.0618 10.6879 67.7034 10.1353 68.443 9.74534C69.1826 9.35542 70.001 9.13822 70.8367 9.11014C73.8386 9.11014 75.6022 11.6842 75.5497 15.0313C75.4821 19.2414 73.2982 23.6692 68.7429 23.6692H68.7729ZM68.5778 12.9825C66.6491 12.9825 65.4634 15.4516 65.4334 17.3503C65.4334 18.6711 65.8986 20.142 67.4821 20.142C69.5459 20.142 70.3939 17.4103 70.4164 15.5866C70.4164 14.3484 70.0562 12.9825 68.5778 12.9825ZM97.4336 21.0576H97.516L97.0808 23.2265H101.823L104.683 9.55286H99.7L98.1088 17.1926C97.7864 18.7761 96.8104 19.6092 95.58 19.6092C94.3488 19.6092 94.0784 18.4534 94.3264 17.2452L95.94 9.55286H90.9568L89.1928 17.9957C88.4424 21.6729 90.1536 23.6542 93.0208 23.6542C93.9208 23.6454 94.8032 23.3994 95.5776 22.9409C96.352 22.4823 96.9928 21.8275 97.4336 21.0425V21.0576ZM124.202 28.5623L124.953 24.7273H65.771L65.0206 28.5623H124.202Z" fill="white"/>
<path d="M129.568 13.2902C129.519 13.2865 129.471 13.2729 129.427 13.2505C129.383 13.2281 129.343 13.1971 129.311 13.1594C129.279 13.1217 129.255 13.0781 129.24 13.031C129.225 12.9839 129.219 12.9343 129.223 12.8849C129.286 12.2166 129.207 11.5425 128.991 10.907C128.775 10.2715 128.427 9.6887 127.969 9.19702C127.512 8.70531 126.956 8.31569 126.339 8.05369C125.72 7.7917 125.054 7.66324 124.383 7.67672C124.283 7.67672 124.188 7.6372 124.118 7.56682C124.047 7.49645 124.007 7.401 124.007 7.30148C124.007 7.20196 124.047 7.10653 124.118 7.03616C124.188 6.96579 124.283 6.92625 124.383 6.92625C124.563 6.93788 124.743 6.93788 124.923 6.92625C126.256 6.78424 127.498 6.18201 128.435 5.22319C129.372 4.26436 129.945 3.00892 130.056 1.67297C130.064 1.57874 130.107 1.49085 130.176 1.42685C130.246 1.36285 130.337 1.32746 130.431 1.32776C130.481 1.33155 130.529 1.34506 130.573 1.36751C130.617 1.38996 130.656 1.4209 130.688 1.45857C130.721 1.49623 130.745 1.53987 130.76 1.58697C130.775 1.63407 130.781 1.6837 130.777 1.73301C130.715 2.40074 130.794 3.07414 131.009 3.70916C131.225 4.34418 131.572 4.92652 132.028 5.41812C132.485 5.90972 133.039 6.29949 133.656 6.56196C134.274 6.82444 134.939 6.95368 135.61 6.94126C135.709 6.94126 135.805 6.9808 135.875 7.05117C135.946 7.12154 135.985 7.21698 135.985 7.3165C135.985 7.41602 135.946 7.51147 135.875 7.58184C135.805 7.6522 135.709 7.69173 135.61 7.69173C134.184 7.71528 132.817 8.26452 131.771 9.23406C130.726 10.2036 130.075 11.5251 129.944 12.945C129.936 13.0393 129.894 13.1272 129.824 13.1912C129.755 13.2552 129.663 13.2905 129.568 13.2902Z" fill="white"/>
</g>
<defs>
<clipPath id="clip0_23_946">
<rect width="140" height="32" fill="white" transform="translate(0 0.9375)"/>
</clipPath>
</defs>
</svg>
