<svg width="249" height="301" viewBox="0 0 249 301" fill="none" xmlns="http://www.w3.org/2000/svg">
<path d="M28.3775 258.439C72.9378 296.874 180.274 254.169 186.272 236.612L199 229C217.821 209.862 237.438 152.91 224.247 89.5169C207.758 10.2752 113.003 31.1674 117 71.5001C120.997 111.833 68.481 123.143 40.5 116.5C12.519 109.857 -26.0855 211.463 28.3775 258.439Z" fill="#C7EBEB" fill-opacity="0.38"/>
<path fill-rule="evenodd" clip-rule="evenodd" d="M40.1495 135.033C40.0546 134.696 40.1721 134.419 40.5023 134.199C94.9248 134.237 149.355 133.936 203.793 133.297C204.693 133.408 204.813 133.705 204.154 134.186C179.759 156.678 155.615 179.465 131.723 202.547C126.302 207.492 120.461 208.133 114.202 204.467C89.6003 181.144 64.9161 157.999 40.1495 135.033Z" fill="#1E2D2A"/>
<path fill-rule="evenodd" clip-rule="evenodd" d="M40.2403 132.952C40.1454 133.289 40.2629 133.566 40.5932 133.786C95.0156 133.748 149.446 134.049 203.884 134.688C204.784 134.576 204.904 134.28 204.244 133.798C179.85 111.306 155.706 88.5196 131.814 65.4378C126.393 60.4924 120.552 59.8523 114.292 63.518C89.6911 86.8413 65.0069 109.986 40.2403 132.952Z" fill="#275353"/>
<g filter="url(#filter0_d_415_23)">
<rect x="56" y="83" width="132" height="139" rx="4" fill="#E1EFEF"/>
</g>
<path fill-rule="evenodd" clip-rule="evenodd" d="M122.273 105C126.783 105.171 131.078 106.194 135.159 108.068C148.755 117.826 152.335 130.508 145.898 146.113C140.974 154.141 133.917 158.845 124.727 160.227C121.864 160.227 119 160.227 116.137 160.227C114.522 159.719 112.886 159.208 111.228 158.692C98.0985 151.971 92.4739 141.232 94.3529 126.477C98.6029 112.713 107.91 105.553 122.273 105Z" fill="#31CECE"/>
<path fill-rule="evenodd" clip-rule="evenodd" d="M137.001 120.341C139.607 121.402 141.141 123.243 141.603 125.863C134.035 133.431 126.466 141 118.898 148.568C113.572 143.343 108.356 138.025 103.251 132.613C104.888 131.182 106.523 129.75 108.16 128.318C111.526 131.377 114.799 134.548 117.978 137.829C118.592 138.239 119.205 138.239 119.819 137.829C125.67 132.081 131.397 126.251 137.001 120.341Z" fill="#273935"/>
<path fill-rule="evenodd" clip-rule="evenodd" d="M40.1491 135.034C64.9157 158 89.5999 181.145 114.201 204.468C120.461 208.134 126.301 207.493 131.722 202.548C155.614 179.466 179.758 156.68 204.153 134.187C204.789 170.367 204.811 206.497 204.218 242.575C170.308 242.93 136.418 243.081 102.547 243.026C89.4372 243.007 76.2846 242.927 63.0889 242.785L54.0256 243.263L47.7137 243.663L42.5163 244.15L38.4335 244.725C38.4335 244.725 40.3281 220.127 40.0506 220.009C40.3277 209.448 40.2016 198.91 39.6727 188.398C39.8316 170.609 39.9902 152.822 40.1491 135.034Z" fill="#273A36"/>
<rect x="64" y="50" width="4" height="8" rx="2" fill="#31CECE"/>
<rect x="56" y="62" width="4" height="8" rx="2" transform="rotate(-90 56 62)" fill="#31CECE"/>
<rect x="64" y="62" width="4" height="8" rx="2" fill="#31CECE"/>
<rect x="68" y="62" width="4" height="8" rx="2" transform="rotate(-90 68 62)" fill="#31CECE"/>
<rect x="240.6" y="127" width="2.8" height="5.6" rx="1.4" fill="#31CECE"/>
<rect x="235" y="135.4" width="2.8" height="5.6" rx="1.4" transform="rotate(-90 235 135.4)" fill="#31CECE"/>
<rect x="240.6" y="135.4" width="2.8" height="5.6" rx="1.4" fill="#31CECE"/>
<rect x="243.4" y="135.4" width="2.8" height="5.6" rx="1.4" transform="rotate(-90 243.4 135.4)" fill="#31CECE"/>
<rect x="22.5996" y="184" width="2.8" height="5.6" rx="1.4" fill="#31CECE"/>
<rect x="17" y="192.4" width="2.8" height="5.6" rx="1.4" transform="rotate(-90 17 192.4)" fill="#31CECE"/>
<rect x="22.5996" y="192.4" width="2.8" height="5.6" rx="1.4" fill="#31CECE"/>
<rect x="25.4004" y="192.4" width="2.8" height="5.6" rx="1.4" transform="rotate(-90 25.4004 192.4)" fill="#31CECE"/>
<defs>
<filter id="filter0_d_415_23" x="52" y="83" width="140" height="147" filterUnits="userSpaceOnUse" color-interpolation-filters="sRGB">
<feFlood flood-opacity="0" result="BackgroundImageFix"/>
<feColorMatrix in="SourceAlpha" type="matrix" values="0 0 0 0 0 0 0 0 0 0 0 0 0 0 0 0 0 0 127 0" result="hardAlpha"/>
<feOffset dy="4"/>
<feGaussianBlur stdDeviation="2"/>
<feComposite in2="hardAlpha" operator="out"/>
<feColorMatrix type="matrix" values="0 0 0 0 0 0 0 0 0 0 0 0 0 0 0 0 0 0 0.25 0"/>
<feBlend mode="normal" in2="BackgroundImageFix" result="effect1_dropShadow_415_23"/>
<feBlend mode="normal" in="SourceGraphic" in2="effect1_dropShadow_415_23" result="shape"/>
</filter>
</defs>
</svg>
