<svg width="22" height="24" viewBox="0 0 22 24" fill="none" xmlns="http://www.w3.org/2000/svg">
<g clip-path="url(#clip0_24_1056)">
<path d="M18.6989 0.225891C19.3389 0.225891 19.8941 0.451773 20.3647 0.903538C20.8353 1.3553 21.0612 1.90119 21.0424 2.54119V18.8329C21.0424 19.4918 20.8165 20.0471 20.3647 20.4988C19.913 20.9506 19.3577 21.1765 18.6989 21.1765H14.04V13.0165H16.3836L17.033 10.1365H14.04V8.18824C14.04 7.77413 14.1624 7.38824 14.4071 7.0306C14.6518 6.67295 15.0659 6.49413 15.6494 6.49413H17.033V3.47295H14.9436C13.4565 3.47295 12.3553 3.86824 11.64 4.65883C10.9247 5.44942 10.5671 6.48471 10.5671 7.76471V10.1365H8.22356V13.0165H10.5671V21.1765H2.40709C1.76709 21.1765 1.22121 20.9506 0.769444 20.4988C0.317679 20.0471 0.0917969 19.4918 0.0917969 18.8329V2.54119C0.0917969 1.90119 0.317679 1.3553 0.769444 0.903538C1.22121 0.451773 1.76709 0.225891 2.40709 0.225891H18.6989Z" fill="white"/>
</g>
<defs>
<clipPath id="clip0_24_1056">
<rect width="21.36" height="24" fill="white"/>
</clipPath>
</defs>
</svg>
