<?xml version="1.0" encoding="UTF-8"?>
<svg id="Layer_1" data-name="Layer 1" xmlns="http://www.w3.org/2000/svg" viewBox="0 0 198.52 108.4">
  <g>
    <rect x="31.41" y="29.71" width="51.21" height="48.98" rx="11.12" ry="11.12" fill="#cba2a6"/>
    <g>
      <g>
        <polygon points="41.37 39.11 41.37 51.51 47.57 51.51 47.57 45.31 53.78 45.31 53.78 39.11 41.37 39.11" fill="#fff"/>
        <polygon points="60.24 39.11 60.24 45.31 66.45 45.31 66.45 51.51 72.65 51.51 72.65 39.11 60.24 39.11" fill="#fff"/>
      </g>
      <g>
        <rect x="53.8" y="51.44" width="6.46" height="6.46" fill="#fff"/>
        <rect x="53.8" y="63.8" width="6.46" height="6.46" fill="#fff"/>
      </g>
    </g>
  </g>
  <g>
    <path d="M104.06,63.81c-.56,0-1.09.11-1.59.33-.5.22-.93.51-1.29.87-.36.36-.65.79-.87,1.29-.22.5-.33,1.03-.33,1.59s.11,1.09.33,1.59c.22.5.51.93.87,1.29.36.36.79.65,1.29.87.5.22,1.03.33,1.59.33.76,0,1.44-.19,2.05-.57.61-.38,1.08-.88,1.43-1.49h4.38c-.24.83-.6,1.6-1.09,2.3-.49.7-1.08,1.3-1.77,1.82-.69.52-1.46.92-2.31,1.21-.85.29-1.75.43-2.69.43-1.12,0-2.18-.2-3.18-.61-1-.41-1.86-.96-2.6-1.67-.73-.71-1.31-1.53-1.74-2.47-.43-.94-.64-1.95-.64-3.02s.21-2.07.64-3.02c.43-.94,1.01-1.77,1.74-2.47s1.6-1.26,2.6-1.67c1-.41,2.06-.61,3.18-.61.96,0,1.87.15,2.72.45s1.63.71,2.32,1.22c.7.52,1.3,1.13,1.79,1.85.5.72.86,1.5,1.07,2.35h-4.29c-.36-.65-.86-1.18-1.48-1.58-.63-.4-1.34-.6-2.13-.6Z" fill="#cba2a6"/>
    <path d="M129.15,67.88c0,1.07-.21,2.07-.64,3.02-.43.94-1.01,1.77-1.74,2.47-.73.71-1.59,1.26-2.57,1.67-.98.41-2.03.61-3.15.61s-2.17-.2-3.15-.61c-.98-.41-1.83-.96-2.57-1.67-.73-.71-1.31-1.53-1.74-2.47-.43-.94-.64-1.95-.64-3.02s.21-2.07.64-3.02c.43-.94,1.01-1.77,1.74-2.47s1.59-1.26,2.57-1.67c.98-.41,2.03-.61,3.15-.61s2.17.2,3.15.61c.98.41,1.83.96,2.57,1.67s1.31,1.53,1.74,2.47c.43.94.64,1.95.64,3.02ZM125.07,67.88c0-.56-.1-1.09-.31-1.59-.21-.5-.49-.93-.86-1.29-.36-.36-.79-.65-1.28-.87-.49-.22-1.01-.33-1.58-.33s-1.09.11-1.58.33c-.49.22-.91.51-1.28.87-.36.36-.65.79-.86,1.29-.21.5-.31,1.03-.31,1.59s.1,1.09.31,1.59c.21.5.49.93.86,1.29.36.36.79.65,1.28.87.49.22,1.01.33,1.58.33s1.09-.11,1.58-.33c.49-.22.91-.51,1.28-.87.36-.36.65-.79.86-1.29.21-.5.31-1.03.31-1.59Z" fill="#cba2a6"/>
    <path d="M130.91,67.88c0-1.07.19-2.07.56-3.02.37-.94.89-1.77,1.56-2.47.67-.71,1.47-1.26,2.41-1.67.93-.41,1.96-.61,3.08-.61h.54v3.7c-.56,0-1.09.11-1.59.33-.5.22-.93.51-1.29.87-.36.36-.65.79-.87,1.29-.22.5-.33,1.03-.33,1.59v7.34h-4.08v-7.34Z" fill="#cba2a6"/>
    <path d="M140.83,75.22v-19.57h4.08v10.52l4.73-5.63h4.89l-5.41,6.25,6.69,8.42h-4.95l-5.95-7.75v7.75h-4.08Z" fill="#cba2a6"/>
  </g>
  <g>
    <g>
      <path d="M100.54,32.22v4.89h4.08v3.48h-4.08v3.86c0,.56.11,1.09.33,1.59.22.5.51.93.87,1.29.36.36.79.65,1.29.87.5.22,1.03.33,1.59.33v3.7h-.54c-1.12,0-2.15-.2-3.08-.61-.93-.41-1.74-.96-2.41-1.67-.67-.71-1.19-1.53-1.56-2.47-.37-.94-.56-1.95-.56-3.02v-12.23h4.08Z" fill="#3b3b56"/>
      <path d="M106.79,44.45c0-1.07.19-2.07.56-3.02.37-.94.89-1.77,1.56-2.47.67-.71,1.47-1.26,2.4-1.67.93-.41,1.96-.61,3.08-.61h.54v3.7c-.56,0-1.09.11-1.59.33-.5.22-.93.51-1.29.87-.36.36-.65.79-.87,1.29-.22.5-.33,1.03-.33,1.59v7.34h-4.08v-7.34Z" fill="#3b3b56"/>
      <path d="M123.97,36.68c1.12,0,2.17.2,3.15.61.98.41,1.83.96,2.55,1.67.72.71,1.3,1.53,1.73,2.47.43.94.64,1.95.64,3.02v7.34h-3.8v-1.82c-.47.69-1.08,1.24-1.82,1.64-.74.41-1.56.61-2.45.61-1.11,0-2.15-.2-3.14-.61s-1.84-.96-2.57-1.67c-.72-.71-1.3-1.53-1.73-2.47-.43-.94-.64-1.95-.64-3.02s.21-2.07.64-3.02c.43-.94,1-1.77,1.73-2.47.72-.71,1.58-1.26,2.57-1.67s2.03-.61,3.14-.61ZM124.05,48.53c.56,0,1.09-.11,1.59-.33.5-.22.93-.51,1.29-.87.36-.36.65-.79.87-1.29.22-.5.33-1.03.33-1.59s-.11-1.09-.33-1.59c-.22-.5-.51-.93-.87-1.29-.36-.36-.79-.65-1.29-.87-.5-.22-1.03-.33-1.59-.33s-1.09.11-1.59.33c-.5.22-.93.51-1.29.87-.36.36-.65.79-.87,1.29-.22.5-.33,1.03-.33,1.59s.11,1.09.33,1.59c.22.5.51.93.87,1.29.36.36.79.65,1.29.87.5.22,1.03.33,1.59.33Z" fill="#3b3b56"/>
      <path d="M141.96,40.37c-.56,0-1.09.11-1.59.33-.5.22-.93.51-1.29.87-.36.36-.65.79-.87,1.29-.22.5-.33,1.03-.33,1.59s.11,1.09.33,1.59c.22.5.51.93.87,1.29.36.36.79.65,1.29.87.5.22,1.03.33,1.59.33.76,0,1.44-.19,2.05-.57s1.08-.88,1.43-1.49h4.38c-.24.83-.6,1.6-1.09,2.3-.49.7-1.08,1.3-1.77,1.82-.69.52-1.46.92-2.31,1.21s-1.75.43-2.69.43c-1.12,0-2.18-.2-3.18-.61-1-.41-1.86-.96-2.6-1.67-.73-.71-1.31-1.53-1.74-2.47-.43-.94-.64-1.95-.64-3.02s.21-2.07.64-3.02c.43-.94,1.01-1.77,1.74-2.47s1.6-1.26,2.6-1.67c1-.41,2.06-.61,3.18-.61.96,0,1.87.15,2.72.45.85.3,1.63.71,2.32,1.22s1.3,1.13,1.79,1.85c.5.72.86,1.5,1.07,2.35h-4.29c-.36-.65-.86-1.18-1.48-1.58-.63-.4-1.34-.6-2.13-.6Z" fill="#3b3b56"/>
      <path d="M159,36.68c1.12,0,2.18.2,3.18.61,1,.41,1.86.96,2.6,1.67.73.71,1.31,1.53,1.74,2.47.43.94.64,1.95.64,3.02,0,.25-.01.49-.04.72-.03.23-.06.46-.09.69h-11.85c.31.78.8,1.42,1.48,1.92.68.5,1.46.75,2.35.75.65,0,1.26-.14,1.82-.43.56-.29,1.02-.67,1.39-1.14h4.51c-.27.76-.66,1.47-1.16,2.12-.5.65-1.09,1.21-1.77,1.67-.68.46-1.42.82-2.23,1.09-.81.26-1.66.39-2.57.39-1.12,0-2.18-.2-3.18-.61-1-.41-1.86-.96-2.6-1.67-.73-.71-1.31-1.53-1.74-2.47-.43-.94-.64-1.95-.64-3.02s.21-2.07.64-3.02c.43-.94,1.01-1.77,1.74-2.47s1.6-1.26,2.6-1.67c1-.41,2.06-.61,3.18-.61ZM162.83,43.04c-.31-.78-.81-1.42-1.49-1.92-.69-.5-1.47-.75-2.34-.75s-1.67.25-2.35.75c-.68.5-1.17,1.14-1.48,1.92h7.66Z" fill="#3b3b56"/>
    </g>
    <path d="M172.97,41.88v-3.52h1.66c.42,0,.75.11,1,.34.25.23.38.51.38.84,0,.26-.07.48-.22.67-.15.18-.34.32-.58.41l.8,1.26h-.85l-.73-1.16h-.7v1.16h-.75ZM173.72,40.02h.88c.21,0,.37-.04.47-.13.1-.09.16-.2.16-.35s-.05-.26-.16-.35c-.11-.09-.26-.13-.47-.13h-.88v.95ZM174.31,43.59c-1.89,0-3.43-1.54-3.43-3.43s1.54-3.43,3.43-3.43,3.43,1.54,3.43,3.43-1.54,3.43-3.43,3.43ZM174.31,37.55c-1.45,0-2.62,1.18-2.62,2.62s1.18,2.62,2.62,2.62,2.62-1.18,2.62-2.62-1.18-2.62-2.62-2.62Z" fill="#3b3b56"/>
  </g>
</svg>