<svg width="640" height="140" viewBox="0 0 640 140" fill="none" xmlns="http://www.w3.org/2000/svg">
<path d="M53.0714 30H24.5V58.5714" stroke="#31CECE" stroke-width="12"/>
<path d="M53.0714 110H24.5V81.4286" stroke="#31CECE" stroke-width="12"/>
<path d="M104.5 58.5714L104.5 30L75.9286 30" stroke="#31CECE" stroke-width="12"/>
<path d="M104.5 81.4286L104.5 110L75.9286 110" stroke="#31CECE" stroke-width="12"/>
<rect x="53.0715" y="58.5714" width="22.8571" height="22.8571" fill="#31CECE"/>
<path d="M193.852 38.32V53.296H175.804V106H156.988V53.296H139.132V38.32H193.852ZM215.79 61.648C217.902 58.576 220.462 56.144 223.47 54.352C226.478 52.56 229.71 51.664 233.166 51.664V71.728H227.886C223.79 71.728 220.75 72.528 218.766 74.128C216.782 75.728 215.79 78.512 215.79 82.48V106H196.974V52.144H215.79V61.648ZM232.999 79.024C232.999 73.456 233.991 68.592 235.975 64.432C238.023 60.272 240.775 57.072 244.231 54.832C247.751 52.592 251.655 51.472 255.943 51.472C259.655 51.472 262.855 52.208 265.543 53.68C268.231 55.152 270.311 57.136 271.783 59.632V52.144H290.599V106H271.783V98.512C270.311 101.008 268.199 102.992 265.447 104.464C262.759 105.936 259.591 106.672 255.943 106.672C251.655 106.672 247.751 105.552 244.231 103.312C240.775 101.072 238.023 97.872 235.975 93.712C233.991 89.488 232.999 84.592 232.999 79.024ZM271.783 79.024C271.783 75.568 270.823 72.848 268.903 70.864C267.047 68.88 264.743 67.888 261.991 67.888C259.175 67.888 256.839 68.88 254.983 70.864C253.127 72.784 252.199 75.504 252.199 79.024C252.199 82.48 253.127 85.232 254.983 87.28C256.839 89.264 259.175 90.256 261.991 90.256C264.743 90.256 267.047 89.264 268.903 87.28C270.823 85.296 271.783 82.544 271.783 79.024ZM294.409 79.024C294.409 73.456 295.561 68.592 297.865 64.432C300.169 60.272 303.369 57.072 307.465 54.832C311.625 52.592 316.361 51.472 321.673 51.472C328.521 51.472 334.281 53.36 338.953 57.136C343.625 60.848 346.633 66.064 347.977 72.784H328.009C326.857 69.264 324.617 67.504 321.289 67.504C318.921 67.504 317.033 68.496 315.625 70.48C314.281 72.4 313.609 75.248 313.609 79.024C313.609 82.8 314.281 85.68 315.625 87.664C317.033 89.648 318.921 90.64 321.289 90.64C324.681 90.64 326.921 88.88 328.009 85.36H347.977C346.633 92.016 343.625 97.232 338.953 101.008C334.281 104.784 328.521 106.672 321.673 106.672C316.361 106.672 311.625 105.552 307.465 103.312C303.369 101.072 300.169 97.872 297.865 93.712C295.561 89.552 294.409 84.656 294.409 79.024ZM403.41 78.448C403.41 79.92 403.314 81.392 403.122 82.864H367.506C367.698 85.808 368.498 88.016 369.906 89.488C371.378 90.896 373.234 91.6 375.474 91.6C378.61 91.6 380.85 90.192 382.194 87.376H402.258C401.426 91.088 399.794 94.416 397.362 97.36C394.994 100.24 391.986 102.512 388.338 104.176C384.69 105.84 380.658 106.672 376.242 106.672C370.93 106.672 366.194 105.552 362.034 103.312C357.938 101.072 354.705 97.872 352.337 93.712C350.033 89.552 348.881 84.656 348.881 79.024C348.881 73.392 350.033 68.528 352.337 64.432C354.641 60.272 357.841 57.072 361.938 54.832C366.098 52.592 370.866 51.472 376.242 51.472C381.554 51.472 386.258 52.56 390.354 54.736C394.45 56.912 397.65 60.048 399.954 64.144C402.258 68.176 403.41 72.944 403.41 78.448ZM384.21 73.744C384.21 71.44 383.442 69.648 381.906 68.368C380.37 67.024 378.45 66.352 376.146 66.352C373.842 66.352 371.954 66.992 370.482 68.272C369.01 69.488 368.05 71.312 367.602 73.744H384.21ZM404.198 79.024C404.198 73.456 405.35 68.592 407.654 64.432C409.958 60.272 413.158 57.072 417.254 54.832C421.414 52.592 426.15 51.472 431.462 51.472C438.31 51.472 444.07 53.36 448.742 57.136C453.414 60.848 456.422 66.064 457.766 72.784H437.798C436.646 69.264 434.406 67.504 431.078 67.504C428.71 67.504 426.822 68.496 425.414 70.48C424.07 72.4 423.398 75.248 423.398 79.024C423.398 82.8 424.07 85.68 425.414 87.664C426.822 89.648 428.71 90.64 431.078 90.64C434.47 90.64 436.71 88.88 437.798 85.36H457.766C456.422 92.016 453.414 97.232 448.742 101.008C444.07 104.784 438.31 106.672 431.462 106.672C426.15 106.672 421.414 105.552 417.254 103.312C413.158 101.072 409.958 97.872 407.654 93.712C405.35 89.552 404.198 84.656 404.198 79.024ZM486.798 106.672C481.422 106.672 476.59 105.552 472.302 103.312C468.078 101.072 464.75 97.872 462.318 93.712C459.886 89.552 458.67 84.656 458.67 79.024C458.67 73.456 459.886 68.592 462.318 64.432C464.814 60.272 468.174 57.072 472.398 54.832C476.686 52.592 481.518 51.472 486.894 51.472C492.27 51.472 497.07 52.592 501.294 54.832C505.582 57.072 508.942 60.272 511.374 64.432C513.87 68.592 515.118 73.456 515.118 79.024C515.118 84.592 513.87 89.488 511.374 93.712C508.942 97.872 505.582 101.072 501.294 103.312C497.006 105.552 492.174 106.672 486.798 106.672ZM486.798 90.352C489.422 90.352 491.598 89.392 493.326 87.472C495.118 85.488 496.014 82.672 496.014 79.024C496.014 75.376 495.118 72.592 493.326 70.672C491.598 68.752 489.454 67.792 486.894 67.792C484.334 67.792 482.19 68.752 480.462 70.672C478.734 72.592 477.87 75.376 477.87 79.024C477.87 82.736 478.702 85.552 480.366 87.472C482.03 89.392 484.174 90.352 486.798 90.352ZM537.749 61.648C539.861 58.576 542.421 56.144 545.429 54.352C548.437 52.56 551.669 51.664 555.125 51.664V71.728H549.845C545.749 71.728 542.709 72.528 540.725 74.128C538.741 75.728 537.749 78.512 537.749 82.48V106H518.933V52.144H537.749V61.648ZM591.727 106L576.847 83.92V106H558.031V34.96H576.847V73.264L591.727 52.144H614.287L593.071 79.216L614.671 106H591.727Z" fill="#31CECE"/>
</svg>
