<svg width="646" height="140" viewBox="0 0 646 140" fill="none" xmlns="http://www.w3.org/2000/svg">
<path d="M52.5714 30H24V58.5714" stroke="#31CECE" stroke-width="14"/>
<path d="M52.5714 110H24V81.4286" stroke="#31CECE" stroke-width="14"/>
<path d="M104 58.5714L104 30L75.4286 30" stroke="#31CECE" stroke-width="14"/>
<path d="M104 81.4286L104 110L75.4286 110" stroke="#31CECE" stroke-width="14"/>
<rect x="52.5715" y="58.5714" width="22.8571" height="22.8571" fill="#31CECE"/>
<path d="M200.352 38.32V53.296H182.304V106H163.488V53.296H145.632V38.32H200.352ZM222.29 61.648C224.402 58.576 226.962 56.144 229.97 54.352C232.978 52.56 236.21 51.664 239.666 51.664V71.728H234.386C230.29 71.728 227.25 72.528 225.266 74.128C223.282 75.728 222.29 78.512 222.29 82.48V106H203.474V52.144H222.29V61.648ZM239.499 79.024C239.499 73.456 240.491 68.592 242.475 64.432C244.523 60.272 247.275 57.072 250.731 54.832C254.251 52.592 258.155 51.472 262.443 51.472C266.155 51.472 269.355 52.208 272.043 53.68C274.731 55.152 276.811 57.136 278.283 59.632V52.144H297.099V106H278.283V98.512C276.811 101.008 274.699 102.992 271.947 104.464C269.259 105.936 266.091 106.672 262.443 106.672C258.155 106.672 254.251 105.552 250.731 103.312C247.275 101.072 244.523 97.872 242.475 93.712C240.491 89.488 239.499 84.592 239.499 79.024ZM278.283 79.024C278.283 75.568 277.323 72.848 275.403 70.864C273.547 68.88 271.243 67.888 268.491 67.888C265.675 67.888 263.339 68.88 261.483 70.864C259.627 72.784 258.699 75.504 258.699 79.024C258.699 82.48 259.627 85.232 261.483 87.28C263.339 89.264 265.675 90.256 268.491 90.256C271.243 90.256 273.547 89.264 275.403 87.28C277.323 85.296 278.283 82.544 278.283 79.024ZM300.909 79.024C300.909 73.456 302.061 68.592 304.365 64.432C306.669 60.272 309.869 57.072 313.965 54.832C318.125 52.592 322.861 51.472 328.173 51.472C335.021 51.472 340.781 53.36 345.453 57.136C350.125 60.848 353.133 66.064 354.477 72.784H334.509C333.357 69.264 331.117 67.504 327.789 67.504C325.421 67.504 323.533 68.496 322.125 70.48C320.781 72.4 320.109 75.248 320.109 79.024C320.109 82.8 320.781 85.68 322.125 87.664C323.533 89.648 325.421 90.64 327.789 90.64C331.181 90.64 333.421 88.88 334.509 85.36H354.477C353.133 92.016 350.125 97.232 345.453 101.008C340.781 104.784 335.021 106.672 328.173 106.672C322.861 106.672 318.125 105.552 313.965 103.312C309.869 101.072 306.669 97.872 304.365 93.712C302.061 89.552 300.909 84.656 300.909 79.024ZM409.91 78.448C409.91 79.92 409.814 81.392 409.622 82.864H374.006C374.198 85.808 374.998 88.016 376.406 89.488C377.878 90.896 379.734 91.6 381.974 91.6C385.11 91.6 387.35 90.192 388.694 87.376H408.758C407.926 91.088 406.294 94.416 403.862 97.36C401.494 100.24 398.486 102.512 394.838 104.176C391.19 105.84 387.158 106.672 382.742 106.672C377.43 106.672 372.694 105.552 368.534 103.312C364.438 101.072 361.205 97.872 358.837 93.712C356.533 89.552 355.381 84.656 355.381 79.024C355.381 73.392 356.533 68.528 358.837 64.432C361.141 60.272 364.341 57.072 368.438 54.832C372.598 52.592 377.366 51.472 382.742 51.472C388.054 51.472 392.758 52.56 396.854 54.736C400.95 56.912 404.15 60.048 406.454 64.144C408.758 68.176 409.91 72.944 409.91 78.448ZM390.71 73.744C390.71 71.44 389.942 69.648 388.406 68.368C386.87 67.024 384.95 66.352 382.646 66.352C380.342 66.352 378.454 66.992 376.982 68.272C375.51 69.488 374.55 71.312 374.102 73.744H390.71ZM410.698 79.024C410.698 73.456 411.85 68.592 414.154 64.432C416.458 60.272 419.658 57.072 423.754 54.832C427.914 52.592 432.65 51.472 437.962 51.472C444.81 51.472 450.57 53.36 455.242 57.136C459.914 60.848 462.922 66.064 464.266 72.784H444.298C443.146 69.264 440.906 67.504 437.578 67.504C435.21 67.504 433.322 68.496 431.914 70.48C430.57 72.4 429.898 75.248 429.898 79.024C429.898 82.8 430.57 85.68 431.914 87.664C433.322 89.648 435.21 90.64 437.578 90.64C440.97 90.64 443.21 88.88 444.298 85.36H464.266C462.922 92.016 459.914 97.232 455.242 101.008C450.57 104.784 444.81 106.672 437.962 106.672C432.65 106.672 427.914 105.552 423.754 103.312C419.658 101.072 416.458 97.872 414.154 93.712C411.85 89.552 410.698 84.656 410.698 79.024ZM493.298 106.672C487.922 106.672 483.09 105.552 478.802 103.312C474.578 101.072 471.25 97.872 468.818 93.712C466.386 89.552 465.17 84.656 465.17 79.024C465.17 73.456 466.386 68.592 468.818 64.432C471.314 60.272 474.674 57.072 478.898 54.832C483.186 52.592 488.018 51.472 493.394 51.472C498.77 51.472 503.57 52.592 507.794 54.832C512.082 57.072 515.442 60.272 517.874 64.432C520.37 68.592 521.618 73.456 521.618 79.024C521.618 84.592 520.37 89.488 517.874 93.712C515.442 97.872 512.082 101.072 507.794 103.312C503.506 105.552 498.674 106.672 493.298 106.672ZM493.298 90.352C495.922 90.352 498.098 89.392 499.826 87.472C501.618 85.488 502.514 82.672 502.514 79.024C502.514 75.376 501.618 72.592 499.826 70.672C498.098 68.752 495.954 67.792 493.394 67.792C490.834 67.792 488.69 68.752 486.962 70.672C485.234 72.592 484.37 75.376 484.37 79.024C484.37 82.736 485.202 85.552 486.866 87.472C488.53 89.392 490.674 90.352 493.298 90.352ZM544.249 61.648C546.361 58.576 548.921 56.144 551.929 54.352C554.937 52.56 558.169 51.664 561.625 51.664V71.728H556.345C552.249 71.728 549.209 72.528 547.225 74.128C545.241 75.728 544.249 78.512 544.249 82.48V106H525.433V52.144H544.249V61.648ZM598.227 106L583.347 83.92V106H564.531V34.96H583.347V73.264L598.227 52.144H620.787L599.571 79.216L621.171 106H598.227Z" fill="#283841"/>
</svg>
