<svg width="718" height="148" viewBox="0 0 718 148" fill="none" xmlns="http://www.w3.org/2000/svg">
<rect x="73.0715" y="62.2142" width="24" height="24" fill="#31CECE"/>
<rect x="48.5" y="14" width="24" height="24" fill="#31CECE"/>
<rect x="145.5" y="38" width="24" height="24" transform="rotate(90 145.5 38)" fill="#31CECE"/>
<rect x="24.5" y="14" width="24" height="24" fill="#31CECE"/>
<rect x="145.5" y="14" width="24" height="24" transform="rotate(90 145.5 14)" fill="#31CECE"/>
<rect x="24.5" y="38" width="24" height="24" fill="#31CECE"/>
<rect x="121.5" y="14" width="24" height="24" transform="rotate(90 121.5 14)" fill="#31CECE"/>
<rect x="73.0715" y="110" width="24" height="24" fill="#31CECE"/>
<path d="M245.374 40.09V56.002H226.198V112H206.206V56.002H187.234V40.09H245.374ZM268.683 64.876C270.927 61.612 273.647 59.028 276.843 57.124C280.039 55.22 283.473 54.268 287.145 54.268V75.586H281.535C277.183 75.586 273.953 76.436 271.845 78.136C269.737 79.836 268.683 82.794 268.683 87.01V112H248.691V54.778H268.683V64.876ZM286.968 83.338C286.968 77.422 288.022 72.254 290.13 67.834C292.306 63.414 295.23 60.014 298.902 57.634C302.642 55.254 306.79 54.064 311.346 54.064C315.29 54.064 318.69 54.846 321.546 56.41C324.402 57.974 326.612 60.082 328.176 62.734V54.778H348.168V112H328.176V104.044C326.612 106.696 324.368 108.804 321.444 110.368C318.588 111.932 315.222 112.714 311.346 112.714C306.79 112.714 302.642 111.524 298.902 109.144C295.23 106.764 292.306 103.364 290.13 98.944C288.022 94.456 286.968 89.254 286.968 83.338ZM328.176 83.338C328.176 79.666 327.156 76.776 325.116 74.668C323.144 72.56 320.696 71.506 317.772 71.506C314.78 71.506 312.298 72.56 310.326 74.668C308.354 76.708 307.368 79.598 307.368 83.338C307.368 87.01 308.354 89.934 310.326 92.11C312.298 94.218 314.78 95.272 317.772 95.272C320.696 95.272 323.144 94.218 325.116 92.11C327.156 90.002 328.176 87.078 328.176 83.338ZM352.216 83.338C352.216 77.422 353.44 72.254 355.888 67.834C358.336 63.414 361.736 60.014 366.088 57.634C370.508 55.254 375.54 54.064 381.184 54.064C388.46 54.064 394.58 56.07 399.544 60.082C404.508 64.026 407.704 69.568 409.132 76.708H387.916C386.692 72.968 384.312 71.098 380.776 71.098C378.26 71.098 376.254 72.152 374.758 74.26C373.33 76.3 372.616 79.326 372.616 83.338C372.616 87.35 373.33 90.41 374.758 92.518C376.254 94.626 378.26 95.68 380.776 95.68C384.38 95.68 386.76 93.81 387.916 90.07H409.132C407.704 97.142 404.508 102.684 399.544 106.696C394.58 110.708 388.46 112.714 381.184 112.714C375.54 112.714 370.508 111.524 366.088 109.144C361.736 106.764 358.336 103.364 355.888 98.944C353.44 94.524 352.216 89.322 352.216 83.338ZM468.029 82.726C468.029 84.29 467.927 85.854 467.723 87.418H429.881C430.085 90.546 430.935 92.892 432.431 94.456C433.995 95.952 435.967 96.7 438.347 96.7C441.679 96.7 444.059 95.204 445.487 92.212H466.805C465.921 96.156 464.187 99.692 461.603 102.82C459.087 105.88 455.891 108.294 452.015 110.062C448.139 111.83 443.855 112.714 439.163 112.714C433.519 112.714 428.487 111.524 424.067 109.144C419.715 106.764 416.281 103.364 413.765 98.944C411.317 94.524 410.093 89.322 410.093 83.338C410.093 77.354 411.317 72.186 413.765 67.834C416.213 63.414 419.613 60.014 423.965 57.634C428.385 55.254 433.451 54.064 439.163 54.064C444.807 54.064 449.805 55.22 454.157 57.532C458.509 59.844 461.909 63.176 464.357 67.528C466.805 71.812 468.029 76.878 468.029 82.726ZM447.629 77.728C447.629 75.28 446.813 73.376 445.181 72.016C443.549 70.588 441.509 69.874 439.061 69.874C436.613 69.874 434.607 70.554 433.043 71.914C431.479 73.206 430.459 75.144 429.983 77.728H447.629ZM468.866 83.338C468.866 77.422 470.09 72.254 472.538 67.834C474.986 63.414 478.386 60.014 482.738 57.634C487.158 55.254 492.19 54.064 497.834 54.064C505.11 54.064 511.23 56.07 516.194 60.082C521.158 64.026 524.354 69.568 525.782 76.708H504.566C503.342 72.968 500.962 71.098 497.426 71.098C494.91 71.098 492.904 72.152 491.408 74.26C489.98 76.3 489.266 79.326 489.266 83.338C489.266 87.35 489.98 90.41 491.408 92.518C492.904 94.626 494.91 95.68 497.426 95.68C501.03 95.68 503.41 93.81 504.566 90.07H525.782C524.354 97.142 521.158 102.684 516.194 106.696C511.23 110.708 505.11 112.714 497.834 112.714C492.19 112.714 487.158 111.524 482.738 109.144C478.386 106.764 474.986 103.364 472.538 98.944C470.09 94.524 468.866 89.322 468.866 83.338ZM556.629 112.714C550.917 112.714 545.783 111.524 541.227 109.144C536.739 106.764 533.203 103.364 530.619 98.944C528.035 94.524 526.743 89.322 526.743 83.338C526.743 77.422 528.035 72.254 530.619 67.834C533.271 63.414 536.841 60.014 541.329 57.634C545.885 55.254 551.019 54.064 556.731 54.064C562.443 54.064 567.543 55.254 572.031 57.634C576.587 60.014 580.157 63.414 582.741 67.834C585.393 72.254 586.719 77.422 586.719 83.338C586.719 89.254 585.393 94.456 582.741 98.944C580.157 103.364 576.587 106.764 572.031 109.144C567.475 111.524 562.341 112.714 556.629 112.714ZM556.629 95.374C559.417 95.374 561.729 94.354 563.565 92.314C565.469 90.206 566.421 87.214 566.421 83.338C566.421 79.462 565.469 76.504 563.565 74.464C561.729 72.424 559.451 71.404 556.731 71.404C554.011 71.404 551.733 72.424 549.897 74.464C548.061 76.504 547.143 79.462 547.143 83.338C547.143 87.282 548.027 90.274 549.795 92.314C551.563 94.354 553.841 95.374 556.629 95.374ZM610.765 64.876C613.009 61.612 615.729 59.028 618.925 57.124C622.121 55.22 625.555 54.268 629.227 54.268V75.586H623.617C619.265 75.586 616.035 76.436 613.927 78.136C611.819 79.836 610.765 82.794 610.765 87.01V112H590.773V54.778H610.765V64.876ZM668.116 112L652.306 88.54V112H632.314V36.52H652.306V77.218L668.116 54.778H692.086L669.544 83.542L692.494 112H668.116Z" fill="#283841"/>
</svg>
